<?xml version="1.0" encoding="utf-8"?>
<!DOCTYPE svg PUBLIC "-//W3C//DTD SVG 1.1//EN" "http://www.w3.org/Graphics/SVG/1.1/DTD/svg11.dtd">
<svg version="1.1" id="days" xmlns="http://www.w3.org/2000/svg" xmlns:xlink="http://www.w3.org/1999/xlink" x="100%" y="100%"
	 width="100%" height="100%" viewBox="0 0 100 100" enable-background="new 0 0 100 100" xml:space="preserve">
<g>
	<g>
		<g>
			<path fill="#4C626E" d="M0.003,33.959c0-0.855,0.696-1.549,1.549-1.549c0.852,0,1.548,0.697,1.548,1.549V89.98
				c0,1.772,0.729,3.386,1.896,4.557c1.169,1.168,2.783,1.897,4.556,1.897H89.58c1.771,0,3.386-0.729,4.555-1.897
				c1.17-1.171,1.896-2.784,1.896-4.557V33.959c0-0.855,0.695-1.549,1.549-1.549c0.853,0,1.549,0.697,1.549,1.549V89.98
				c0,2.628-1.075,5.02-2.803,6.745c-1.73,1.731-4.118,2.807-6.745,2.807H9.552c-2.628,0-5.019-1.076-6.746-2.807
				C1.079,95,0.003,92.608,0.003,89.98V33.959z"/>
			<path fill="#D13920" d="M30.01,39.51H15.102v16.906H30.01V39.51L30.01,39.51z M13.553,36.413H31.52h0.039
				c0.855,0,1.549,0.696,1.549,1.549v19.965v0.038c0,0.855-0.697,1.55-1.549,1.55H13.593h-0.04c-0.854,0-1.548-0.697-1.548-1.55V38
				v-0.039C12.002,37.108,12.699,36.413,13.553,36.413z"/>
			<path fill="#D13920" d="M84.029,39.51H69.121v16.906h14.908V39.51L84.029,39.51z M67.569,36.413h17.966h0.043
				c0.855,0,1.549,0.696,1.549,1.549v19.965v0.038c0,0.855-0.696,1.55-1.549,1.55H67.611h-0.039c-0.855,0-1.552-0.697-1.552-1.55V38
				v-0.039C66.021,37.108,66.717,36.413,67.569,36.413z"/>
			<path fill="#D13920" d="M57.016,39.51H42.109v16.906h14.907V39.51L57.016,39.51z M40.56,36.413h17.967h0.041
				c0.856,0,1.55,0.696,1.55,1.549v19.965v0.038c0,0.855-0.697,1.55-1.55,1.55H40.603H40.56c-0.855,0-1.548-0.697-1.548-1.55V38
				v-0.039C39.011,37.108,39.708,36.413,40.56,36.413z"/>
			<path fill="#D13920" d="M30.01,67.524H15.102V84.43H30.01V67.524L30.01,67.524z M13.553,64.423H31.52h0.039
				c0.855,0,1.549,0.696,1.549,1.548v19.966v0.042c0,0.856-0.697,1.55-1.549,1.55H13.593h-0.04c-0.854,0-1.548-0.696-1.548-1.55
				V66.013v-0.037C12.002,65.119,12.699,64.423,13.553,64.423z"/>
			<path fill="#D13920" d="M84.029,67.524H69.121V84.43h14.908V67.524L84.029,67.524z M67.569,64.423h17.966h0.043
				c0.855,0,1.549,0.696,1.549,1.548v19.966v0.042c0,0.856-0.696,1.55-1.549,1.55H67.611h-0.039c-0.855,0-1.552-0.696-1.552-1.55
				V66.013v-0.037C66.021,65.119,66.717,64.423,67.569,64.423z"/>
			<path fill="#D13920" d="M57.016,67.524H42.109V84.43h14.907V67.524L57.016,67.524z M40.56,64.423h17.967h0.041
				c0.856,0,1.55,0.696,1.55,1.548v19.966v0.042c0,0.856-0.697,1.55-1.55,1.55H40.603H40.56c-0.855,0-1.548-0.696-1.548-1.55V66.013
				v-0.037C39.011,65.119,39.708,64.423,40.56,64.423z"/>
			<path fill="#4C626E" d="M74.347,18.258c0,0.856-0.696,1.548-1.548,1.548c-0.856,0-1.549-0.696-1.549-1.548V1.549
				C71.246,0.697,71.942,0,72.795,0c0.855,0,1.55,0.697,1.55,1.549v16.709H74.347z"/>
			<path fill="#4C626E" d="M27.881,18.258c0,0.856-0.697,1.548-1.549,1.548c-0.855,0-1.548-0.696-1.548-1.548V1.549
				C24.78,0.697,25.477,0,26.329,0c0.855,0,1.552,0.697,1.552,1.549V18.258z"/>
			<path fill="#4C626E" d="M26.329,7.753c0.855,0,1.549,0.694,1.549,1.548c0,0.856-0.696,1.549-1.549,1.549H9.552
				c-1.76,0-3.374,0.733-4.549,1.905l-0.075,0.075c-1.127,1.16-1.83,2.748-1.83,4.472v7.105h92.929v-7.105
				c0-1.766-0.732-3.376-1.901-4.546l-0.075-0.077c-1.164-1.128-2.752-1.828-4.477-1.828H78.98c-0.854,0-1.549-0.696-1.549-1.549
				c0-0.854,0.696-1.548,1.549-1.548h10.594c2.552,0,4.908,1.04,6.635,2.715l0.106,0.097c1.728,1.73,2.81,4.115,2.81,6.736v8.612
				v0.042c0,0.855-0.697,1.549-1.549,1.549H1.591H1.549C0.697,27.509,0,26.812,0,25.957v-8.654c0-2.557,1.04-4.906,2.715-6.632
				l0.097-0.107C4.546,8.829,6.934,7.75,9.552,7.75h16.777V7.753L26.329,7.753z M72.795,7.753H32.521
				c-0.855,0-1.548,0.694-1.548,1.548c0,0.856,0.697,1.549,1.548,1.549h40.274c0.855,0,1.55-0.696,1.55-1.549
				C74.347,8.447,73.65,7.753,72.795,7.753z"/>
		</g>
	</g>
</g>
</svg>
