<?xml version="1.0" encoding="utf-8"?>
<!DOCTYPE svg PUBLIC "-//W3C//DTD SVG 1.1//EN" "http://www.w3.org/Graphics/SVG/1.1/DTD/svg11.dtd">
<svg version="1.1" id="design" xmlns="http://www.w3.org/2000/svg" xmlns:xlink="http://www.w3.org/1999/xlink" x="100%" y="100%"
	 width="100%" height="100%" viewBox="0 0 100 100" enable-background="new 0 0 100 100" xml:space="preserve">
<g>
	<path fill="#D13920" d="M55.561,26.266c0,0,0.059,0,0.059-0.057c0.289-0.174,0.406-0.579,0.23-0.927
		c-6.375-10.551,6.203-19.419,6.783-19.768c0.289-0.23,0.35-0.638,0.174-0.927c-0.232-0.29-0.638-0.347-0.928-0.173
		c-0.115,0.116-14.202,9.97-7.129,21.563C54.923,26.325,55.271,26.44,55.561,26.266z"/>
	<path fill="#D13920" d="M41.011,69.394c0.116,0.463,0.58,0.812,1.043,0.695c0.464-0.116,0.753-0.638,0.638-1.101
		c-0.058-0.232-1.392-5.508-8.116-5.508l0,0c-0.058,0-0.115,0-0.115,0c-3.537,0.059-5.216,1.623-6.029,2.957
		c-0.87,1.448-0.812,3.304-0.812,3.419c0,0.406,0.348,1.333,0.927,1.333v-0.058v-0.115l0,0v0.115c0,0,0.29-0.173,0.406-0.348
		c0-0.058,0-0.058,0-0.058c0.232-0.232,0.348-0.696,0.348-1.043c0-0.058,0-1.275,0.579-2.262c0.813-1.391,2.435-2.144,4.638-2.201
		c0.058,0,0.116,0,0.116-0.059C39.968,65.221,41.011,69.221,41.011,69.394z"/>
	<path fill="#D13920" d="M55.271,63.48h-0.117c-6.897,0-8.114,5.565-8.114,5.623c-0.059,0.231,0,0.406,0.115,0.58
		c0.116,0.173,0.348,0.231,0.464,0.231c0,0,0.057,0,0.116,0c0.058,0,0.116,0,0.174,0c0.405,0,0.753-0.289,0.87-0.694
		c0.058-0.175,0.985-4.29,6.434-4.349h0.174c4.869,0,5.275,3.941,5.275,4.405c0,0.349,0.404,1.274,0.984,1.274v-0.114l0,0l0,0v0.114
		c0,0,0.29-0.172,0.349-0.347c0-0.058-0.059-0.058-0.059-0.058c0.232-0.232,0.349-0.638,0.29-0.927c0-0.059-0.058-1.566-0.928-2.958
		C60.488,65.046,58.807,63.48,55.271,63.48z M55.271,64.234L55.271,64.234L55.271,64.234L55.271,64.234z"/>
	<path fill="#D13920" d="M52.721,81.219c-0.117,0.058-1.449,0.464-2.957,0.464c-2.087,0-3.536-0.813-4.231-2.377
		c-0.116-0.291-0.464-0.521-0.811-0.521c-0.348,0-0.638,0.173-0.813,0.463c-0.812,1.623-2.202,2.493-4.173,2.493
		c-1.739,0-3.188-0.638-3.362-0.754c-0.406-0.173-0.985,0-1.159,0.407c-0.174,0.463,0,0.927,0.407,1.158
		c0.579,0.291,2.144,0.87,4.057,0.87c1.449,0,3.536-0.407,4.985-2.261c1.449,1.738,3.594,2.086,5.101,2.086
		c1.159,0,2.377-0.174,3.42-0.579c0.232-0.058,0.406-0.232,0.522-0.465c0.116-0.23,0.116-0.463,0.058-0.638
		C53.706,81.334,53.184,81.103,52.721,81.219z"/>
	<path fill="#D13920" d="M44.722,76.813L44.722,76.813c1.274,0,2.029-0.928,1.97-2.146c0-1.217-0.753-2.087-2.492-2.087l0,0
		c-1.159,0-1.972,0.928-1.972,2.146C42.287,75.943,43.503,76.813,44.722,76.813z M44.432,76.697L44.432,76.697L44.432,76.697
		L44.432,76.697z"/>
	<path fill="#4C626E" d="M75.444,47.25h-6.088h-0.868h-5.914l2.666-12.636c4.231-1.854,7.246-5.797,7.886-10.435
		c0.751-5.333-1.683-10.492-6.203-13.274c-0.117-0.811-0.117-1.507,0-2.146c0.812-5.333,4.113-7.419,4.113-7.419
		c0.232-0.173,0.35-0.463,0.292-0.753c-0.06-0.29-0.349-0.463-0.639-0.463c-0.232,0-5.042-0.116-10.375,2.203
		c-5.217,2.26-11.768,7.246-13.274,18.317c-0.697,4.811,1.274,9.275,4.752,12.116L50.75,47.25h-5.391
		C39.505,32.76,33.881,18.615,33.765,18.5L20.027,5.979c-0.231-0.173-0.522-0.29-0.812-0.173c-0.173,0.058-0.348,0.231-0.463,0.406
		c-0.059,0.057-0.059,0.116-0.059,0.232l-1.971,18.664v0.059l0,0v0.058v0.174c0,0,5.971,14.317,8.984,21.853h-5.854v47.937
		c0,2.667,2.667,4.813,5.392,4.813h39.069c2.723,0,4.81-2.087,4.81-4.813V83.189h6.32c3.652,0,6.433-2.783,6.433-6.492V54.09
		C81.877,50.439,79.097,47.25,75.444,47.25z M69.124,55.366h4.638v19.709h-4.638V55.366z M62.633,40.584
		c-1.682,0.522-3.42,0.695-5.218,0.463c-1.796-0.231-3.419-0.87-4.868-1.854l0.405-5.449c1.565,0.986,3.304,1.681,5.217,1.971
		c1.855,0.232,3.768,0.116,5.563-0.464L62.633,40.584z M48.257,20.76c1.159-8.406,5.39-14.144,12.52-17.274
		c3.131-1.333,6.146-1.797,8-1.971c-1.16,1.274-2.668,3.536-3.247,7.071c-0.114,0.87-0.114,1.797,0.06,2.898
		c0.058,0.175,0.172,0.348,0.348,0.464c4.23,2.435,6.492,7.13,5.795,12.057c-0.579,4.173-3.361,7.651-7.246,9.39l0,0
		c-1.969,0.581-4.057,1.276-6.201,0.927C51.852,33.396,47.33,27.368,48.257,20.76z M52.488,40.584
		c1.449,0.87,3.072,1.507,4.811,1.739c1.74,0.232,3.421,0.059,5.102-0.347l-1.159,5.333h-9.216L52.488,40.584z M43.562,47.25h-4.173
		L29.07,21.63l3.594-1.392L43.562,47.25z M33.127,47.25L23.68,23.832l3.825-1.449l10.028,24.927h-4.406V47.25z M19.391,15.137
		l5.854-2.376l6.376,5.797L18.462,23.89L19.391,15.137z M18.637,25.803l3.477-1.333l9.159,22.78h-4L18.637,25.803z M67.385,95.188
		c0,1.74-1.333,3.073-3.07,3.073H25.245c-1.797,0-3.653-1.333-3.653-3.073V48.99h45.792v5.68v21.447v6.376V95.188z M80.14,76.697
		c0,2.725-1.972,4.754-4.695,4.754h-6.32v-4.638h5.739c0.464,0,0.639-0.232,0.639-0.696V54.67c0-0.463-0.175-1.044-0.639-1.044
		h-5.739V48.99h6.32c2.724,0,4.695,2.376,4.695,5.1V76.697z"/>
</g>
</svg>
