<?xml version="1.0" encoding="utf-8"?>
<!DOCTYPE svg PUBLIC "-//W3C//DTD SVG 1.1//EN" "http://www.w3.org/Graphics/SVG/1.1/DTD/svg11.dtd">
<svg version="1.1" id="development" xmlns="http://www.w3.org/2000/svg" xmlns:xlink="http://www.w3.org/1999/xlink" x="100%" y="100%"
	 width="100%" height="100%" viewBox="0 0 100 100" enable-background="new 0 0 100 100" xml:space="preserve">
<g>
	<g>
		<g>
			<path fill="#4C626E" d="M61.217,79.098H14.621V12.269h46.582v4.999h6.262v-6.364C67.469,4.909,62.547,0,56.555,0H19.277
				C13.278,0,8.369,4.909,8.369,10.904v78.188c0,6.004,4.909,10.908,10.908,10.908h37.278c5.992,0,10.914-4.904,10.914-10.908
				v-10.11h-6.252V79.098z M37.91,94.541c-2.764,0-4.995-2.235-4.995-4.994c0-2.768,2.231-5,4.995-5c2.768,0,5.004,2.236,5.004,5
				C42.914,92.306,40.678,94.541,37.91,94.541z"/>
			<rect x="19.959" y="18.976" fill="#4C626E" width="13.977" height="8.522"/>
			<rect x="19.959" y="40.797" fill="#4C626E" width="13.977" height="8.523"/>
			<rect x="19.959" y="63.636" fill="#4C626E" width="13.977" height="8.519"/>
			<path fill="#D13920" d="M83.543,44.543c-0.492-2.582-1.492-4.973-2.908-7.063l5.012-5.017l-5.119-5.103l-5.004,5.008
				c-2.082-1.425-4.484-2.412-7.059-2.91v-7.102h-7.244v7.102c-2.58,0.498-4.961,1.49-7.064,2.91l-4.994-5.008l-5.12,5.106
				l5.004,5.017c-1.412,2.09-2.407,4.48-2.901,7.059h-7.093v7.24h7.093c0.494,2.57,1.494,4.961,2.905,7.059l-5.008,5.008l5.12,5.099
				l5.008-5.004c2.094,1.425,4.484,2.416,7.063,2.918v7.089h7.244v-7.093c2.574-0.493,4.961-1.493,7.059-2.909l5.004,5.004
				l5.119-5.104l-5.012-5.008c1.416-2.09,2.412-4.484,2.91-7.063h7.098l0,0v-7.236H83.543z M64.852,56.04
				c-4.355,0-7.893-3.519-7.893-7.879c0-4.355,3.535-7.896,7.893-7.896c4.359,0,7.879,3.535,7.879,7.896
				C72.73,52.525,69.201,56.04,64.852,56.04z"/>
		</g>
	</g>
</g>
</svg>
