<?xml version="1.0" encoding="utf-8"?>
<!DOCTYPE svg PUBLIC "-//W3C//DTD SVG 1.1//EN" "http://www.w3.org/Graphics/SVG/1.1/DTD/svg11.dtd">
<svg version="1.1" id="heart" xmlns="http://www.w3.org/2000/svg" xmlns:xlink="http://www.w3.org/1999/xlink" x="100%" y="100%"
	 width="100%" height="100%" viewBox="0 0 100 100" enable-background="new 0 0 100 100" xml:space="preserve">
<g>
	<g>
		<g>
			<path fill="#4C626E" d="M49.999,94.844L49.999,94.844c-0.578,0-1.132-0.232-1.537-0.645l-35.88-36.415
				C4.473,49.675,0,40.018,0,30.601C0,15.398,10.101,5.182,25.134,5.182c12.924,0,18.045,5.741,24.863,13.754
				C56.815,10.923,61.936,5.182,74.86,5.182c15.036,0,25.14,10.216,25.14,25.419c0,9.417-4.473,19.075-12.59,27.194L51.535,94.201
				C51.129,94.612,50.576,94.844,49.999,94.844z M25.134,9.499c-12.646,0-20.819,8.283-20.819,21.103
				c0,8.263,4.023,16.836,11.33,24.142l34.353,34.868l34.349-34.856c7.313-7.315,11.335-15.889,11.335-24.152
				c0-12.819-8.175-21.104-20.821-21.104c-11.17,0-15.23,4.774-21.958,12.684l-1.266,1.485c-0.41,0.48-1.009,0.755-1.639,0.755l0,0
				c-0.63,0-1.23-0.275-1.639-0.755l-1.257-1.476C40.372,14.276,36.309,9.499,25.134,9.499z"/>
		</g>
	</g>
</g>
</svg>
