<?xml version="1.0" encoding="utf-8"?>
<!DOCTYPE svg PUBLIC "-//W3C//DTD SVG 1.1//EN" "http://www.w3.org/Graphics/SVG/1.1/DTD/svg11.dtd">
<svg version="1.1" id="idea" xmlns="http://www.w3.org/2000/svg" xmlns:xlink="http://www.w3.org/1999/xlink" x="100%" y="100%"
	 width="100%" height="100%" viewBox="0 0 100 100" enable-background="new 0 0 100 100" xml:space="preserve">
<g>
	<g>
		<g>
			<path fill="#4C626E" d="M39.989,87.603c-0.862,0-1.565-0.699-1.565-1.562c0-0.863,0.7-1.563,1.565-1.563h18.161
				c0.862,0,1.563,0.699,1.563,1.563c0,0.862-0.7,1.562-1.563,1.562H39.989z"/>
			<path fill="#4C626E" d="M42.007,93.803c-0.862,0-1.562-0.699-1.562-1.563c0-0.862,0.703-1.562,1.562-1.562h14.125
				c0.862,0,1.562,0.699,1.562,1.562c0,0.863-0.699,1.563-1.562,1.563H42.007z"/>
			<path fill="#D13920" d="M47.598,72.205c0,0.859-0.696,1.557-1.556,1.557s-1.556-0.697-1.556-1.557
				c-0.006-6.577-0.195-11.491-1.104-16.041c-0.898-4.498-2.506-8.667-5.36-13.81c-0.417-0.751-0.146-1.699,0.602-2.116
				c0.752-0.416,1.699-0.146,2.119,0.602c3.03,5.461,4.745,9.907,5.702,14.715C47.393,60.3,47.591,65.397,47.598,72.205z"/>
			<path fill="#D13920" d="M53.652,72.205c0,0.859-0.697,1.557-1.557,1.557s-1.555-0.697-1.555-1.557
				c0.006-6.808,0.204-11.902,1.151-16.649c0.957-4.808,2.673-9.253,5.702-14.715c0.416-0.751,1.367-1.021,2.115-0.602
				c0.752,0.417,1.02,1.367,0.603,2.116c-2.854,5.142-4.462,9.314-5.36,13.81C53.848,60.714,53.654,65.628,53.652,72.205z"/>
			<path fill="#D13920" d="M38.909,43.08c-0.82-0.26-1.27-1.139-1.009-1.959c0.264-0.819,1.139-1.269,1.959-1.008
				c1.087,0.352,2.028,0.823,2.897,1.259l0.084,0.045c1.357,0.684,2.487,1.218,3.327,0.534l1.919-1.566
				c0.668-0.54,1.65-0.439,2.191,0.228c0.539,0.667,0.438,1.65-0.229,2.19l-1.92,1.566c-2.392,1.946-4.349,0.999-6.705-0.183
				l-0.072-0.033C40.591,43.77,39.764,43.357,38.909,43.08z"/>
			<path fill="#D13920" d="M50.631,7.635c0,0.862-0.699,1.563-1.562,1.563s-1.563-0.7-1.563-1.563V1.581
				c0-0.862,0.7-1.562,1.563-1.562s1.562,0.7,1.562,1.562V7.635z"/>
			<path fill="#D13920" d="M58.279,40.112c0.82-0.264,1.699,0.189,1.96,1.008c0.263,0.82-0.188,1.699-1.009,1.959
				c-0.855,0.277-1.684,0.693-2.447,1.078l-0.072,0.033c-2.354,1.181-4.313,2.131-6.703,0.182l-1.922-1.565
				c-0.667-0.541-0.768-1.523-0.227-2.19c0.54-0.667,1.524-0.768,2.19-0.228l1.92,1.565c0.84,0.684,1.967,0.146,3.327-0.534
				l0.085-0.045C56.252,40.936,57.193,40.464,58.279,40.112z"/>
			<path fill="#4C626E" d="M68.724,24.301c5.028,5.028,8.144,11.98,8.144,19.655c0,3-0.482,5.9-1.367,8.618
				c-0.914,2.809-2.271,5.429-3.98,7.766c-2.867,3.921-5.194,6.496-7,8.497c-3.252,3.596-4.678,5.172-4.678,10.431
				c0,0.863-0.699,1.563-1.563,1.563H58.24h-9.103h-9.146c-0.862,0-1.565-0.699-1.565-1.563c0-5.206-1.455-6.799-4.683-10.337
				l-0.003-0.002l-0.003,0.002c-1.826-1.997-4.176-4.572-7.114-8.592c-1.708-2.336-3.066-4.959-3.98-7.768
				c-0.885-2.715-1.367-5.618-1.367-8.615c0-3.756,0.752-7.349,2.112-10.63l0.029-0.062c1.413-3.385,3.47-6.431,6.005-8.963
				c2.552-2.551,5.614-4.615,9.025-6.027v-0.003c3.281-1.36,6.874-2.112,10.63-2.112c3.749,0,7.338,0.752,10.623,2.112
				C63.104,19.684,66.172,21.75,68.724,24.301L68.724,24.301z M73.739,43.956c0-6.812-2.764-12.979-7.226-17.445
				c-2.281-2.281-4.999-4.117-8.006-5.36c-2.896-1.201-6.086-1.865-9.438-1.865c-3.349,0-6.539,0.664-9.432,1.865v-0.003
				l-0.006,0.003c-3.007,1.243-5.722,3.079-8.003,5.36c-2.259,2.259-4.084,4.953-5.331,7.928l-0.033,0.084
				c-1.198,2.893-1.865,6.083-1.865,9.432c0,2.675,0.426,5.253,1.207,7.652c0.817,2.496,2.018,4.82,3.529,6.89
				c2.822,3.86,5.119,6.376,6.906,8.335l-0.003,0.004c3.477,3.797,5.205,5.697,5.475,10.873h7.619h7.619
				c0.268-5.211,1.963-7.092,5.455-10.952c1.744-1.93,3.986-4.413,6.795-8.254c1.51-2.065,2.711-4.39,3.525-6.886
				C73.313,49.209,73.739,46.634,73.739,43.956z"/>
			<path fill="#4C626E" d="M44.025,100c-0.863,0-1.563-0.7-1.563-1.563s0.7-1.562,1.563-1.562h10.088
				c0.863,0,1.563,0.699,1.563,1.562S54.977,100,54.113,100H44.025z"/>
			<path fill="#D13920" d="M68.235,13.184c-0.427,0.742-1.38,0.999-2.126,0.573c-0.741-0.426-0.998-1.38-0.572-2.125l3.027-5.244
				c0.426-0.742,1.38-0.999,2.125-0.573c0.746,0.426,0.999,1.38,0.572,2.125L68.235,13.184z"/>
			<path fill="#D13920" d="M32.598,11.634c0.426,0.742,0.172,1.696-0.573,2.123c-0.742,0.426-1.696,0.169-2.122-0.573L26.876,7.94
				c-0.427-0.742-0.169-1.695,0.573-2.122c0.745-0.426,1.699-0.169,2.125,0.573L32.598,11.634z"/>
			<path fill="#D13920" d="M18.984,24.103c0.742,0.426,0.999,1.38,0.573,2.125c-0.426,0.742-1.38,0.999-2.123,0.572l-5.243-3.026
				c-0.745-0.426-1.002-1.38-0.576-2.122c0.426-0.746,1.38-0.999,2.125-0.573L18.984,24.103z"/>
			<path fill="#D13920" d="M80.703,26.801c-0.744,0.426-1.699,0.169-2.125-0.572c-0.426-0.746-0.169-1.7,0.572-2.125l5.244-3.027
				c0.746-0.426,1.697-0.169,2.125,0.573c0.426,0.742,0.17,1.699-0.572,2.125L80.703,26.801z"/>
			<path fill="#D13920" d="M32.839,50.13c0.332,0.791-0.04,1.705-0.83,2.037c-0.791,0.332-1.706-0.039-2.038-0.83
				c-0.53-1.256-0.944-2.581-1.217-3.947c-0.271-1.351-0.417-2.73-0.417-4.117c0-0.863,0.703-1.563,1.563-1.563
				c0.862,0,1.562,0.703,1.562,1.563c0,1.22,0.121,2.395,0.345,3.508C32.038,47.939,32.389,49.065,32.839,50.13L32.839,50.13z
				 M32.839,36.412c-0.332,0.791-1.247,1.162-2.038,0.83c-0.791-0.332-1.162-1.247-0.83-2.038c0.524-1.24,1.165-2.415,1.897-3.505
				l0.003-0.003l-0.003-0.003c0.752-1.113,1.604-2.148,2.539-3.082c0.924-0.925,1.959-1.777,3.085-2.536v-0.003
				c1.081-0.729,2.262-1.37,3.512-1.897c1.253-0.531,2.575-0.944,3.945-1.217c1.351-0.274,2.737-0.417,4.12-0.417
				c0.863,0,1.563,0.7,1.563,1.563c0,0.862-0.699,1.562-1.563,1.562c-1.223,0-2.401,0.121-3.511,0.342
				c-1.162,0.231-2.285,0.586-3.346,1.035c-1.031,0.436-2.027,0.979-2.975,1.617l0,0h-0.003c-0.921,0.618-1.8,1.347-2.613,2.161
				c-0.804,0.804-1.533,1.686-2.161,2.62l-0.003-0.003C33.822,34.377,33.278,35.374,32.839,36.412z"/>
		</g>
	</g>
</g>
</svg>
