<?xml version="1.0" encoding="utf-8"?>
<!DOCTYPE svg PUBLIC "-//W3C//DTD SVG 1.1//EN" "http://www.w3.org/Graphics/SVG/1.1/DTD/svg11.dtd">
<svg version="1.1" id="important" xmlns="http://www.w3.org/2000/svg" xmlns:xlink="http://www.w3.org/1999/xlink" x="100%" y="100%"
	 width="100%" height="100%" viewBox="0 0 100 100" enable-background="new 0 0 100 100" xml:space="preserve">
<g id="Layer_1">
	<path fill="#4C626E" d="M88.264,0H11.736C5.264,0,0,5.264,0,11.736v76.527C0,94.736,5.264,100,11.736,100h76.527
		C94.736,100,100,94.736,100,88.264V11.736C100,5.264,94.736,0,88.264,0z M96.088,88.264c0,4.314-3.51,7.824-7.824,7.824H11.736
		c-4.315,0-7.824-3.51-7.824-7.824V11.736c0-4.315,3.509-7.824,7.824-7.824h76.527c4.314,0,7.824,3.509,7.824,7.824V88.264z"/>
</g>
<g id="Layer_2">
	<path fill="#D13920" d="M51.957,21.515c0-1.08-0.875-1.956-1.956-1.956s-1.956,0.876-1.956,1.956v46.5
		c0,1.079,0.875,1.956,1.956,1.956s1.956-0.877,1.956-1.956V21.515z"/>
	<path fill="#D13920" d="M50.001,74.817c-1.081,0-1.956,0.876-1.956,1.956v1.712c0,1.079,0.875,1.956,1.956,1.956
		s1.956-0.877,1.956-1.956v-1.712C51.957,75.693,51.082,74.817,50.001,74.817z"/>
</g>
</svg>
