<?xml version="1.0" encoding="utf-8"?>
<!DOCTYPE svg PUBLIC "-//W3C//DTD SVG 1.1//EN" "http://www.w3.org/Graphics/SVG/1.1/DTD/svg11.dtd">
<svg version="1.1" id="ios" xmlns="http://www.w3.org/2000/svg" xmlns:xlink="http://www.w3.org/1999/xlink" x="100%" y="100%"
	 width="100%" height="100%" viewBox="0 0 100 100" enable-background="new 0 0 100 100" xml:space="preserve">
<g>
	<path fill="#D13920" d="M70.68-0.16c0.392,0,0.781,0,1.172,0c1.06,0.503,1.444,1.24,1.563,2.539
		c0.526,5.771-2.702,11.468-6.056,15.234c-1.447,1.627-3.568,3.413-5.858,4.688c-1.635,0.91-6.136,3.334-8.008,2.344
		c-2.041-1.08-0.628-6.747,0-8.789C56.077,7.458,63.133,1.669,70.68-0.16z M56.813,19.958c6.748-2.432,11.004-7.356,12.306-15.234
		c-0.13,0-0.261,0-0.392,0C62.329,7.375,57.913,12.008,56.813,19.958z"/>
	<path fill="#4C616D" d="M34.157,25.035c-0.02,0.001,0.073-0.187,0.195-0.195c9.167-0.673,13.142,5.166,22.656,4.102
		c3.264-0.365,7.793-2.8,10.742-3.516c7.663-1.858,15.654,0.848,20.508,4.297c1.338,0.951,3.875,2.962,3.711,4.492
		c-0.195,1.83-1.83,2.033-2.539,2.539c-6.106,4.365-10.07,14.19-6.25,22.852c1.479,3.351,4.262,6.313,7.813,8.202
		c1.132,0.604,2.901,1.35,3.125,2.148c0.608,2.186-2.397,7.549-3.125,9.18c-1.474,3.307-2.647,5.811-4.103,8.203
		c-2.715,4.476-7.34,11.75-12.694,12.5c-7.5,1.053-12.183-3.41-17.772-4.102c-5.052-0.624-7.854,1.799-11.524,2.93
		c-2.547,0.785-7.277,1.658-10.352,0.978c-6.179-1.37-12.275-10.115-15.234-15.234c-3.725-6.442-6.554-14.187-7.813-22.461
		C8.406,41.604,16.491,26.486,34.157,25.035z M72.633,28.942c-5.287,0.298-9.968,3.632-15.234,4.102
		c-1.868,0.167-4.049,0.171-5.858,0c-6.07-0.573-10.477-4.525-17.188-4.102c-16.048,1.013-21.512,16.68-18.75,33.594
		c1.212,7.427,3.544,13.575,6.836,19.531c2.25,4.071,7.6,12.927,12.891,13.672c5.735,0.808,10.85-3.431,16.603-4.103
		c4.307-0.502,8.123,0.395,11.133,1.563c2.932,1.14,7.131,3.185,10.742,2.539c4.108-0.733,7.681-7.078,9.569-10.353
		c2.577-4.465,4.496-8.604,6.056-13.477C78.066,66.1,73.816,49.804,82.008,38.512c1.352-1.862,3.264-3.102,4.492-5.078
		C82.293,30.773,78.695,28.6,72.633,28.942z"/>
</g>
</svg>
