<?xml version="1.0" encoding="utf-8"?>
<!DOCTYPE svg PUBLIC "-//W3C//DTD SVG 1.1//EN" "http://www.w3.org/Graphics/SVG/1.1/DTD/svg11.dtd">
<svg version="1.1" id="life_changer" xmlns="http://www.w3.org/2000/svg" xmlns:xlink="http://www.w3.org/1999/xlink" x="100%" y="100%"
	 width="100%" height="100%" viewBox="0 0 100 100" enable-background="new 0 0 100 100" xml:space="preserve">
<g id="Layer_1">
	<g>
		<path fill="none" d="M90.499,13.763H79.148c-0.271,11.351-3.514,22.162-9.325,31.621C81.986,38.087,87.797,25.385,90.499,13.763z"
			/>
		<path fill="none" d="M9.688,13.763c2.703,11.622,8.513,24.324,20.676,31.621c-5.811-9.324-9.054-20.27-9.325-31.621H9.688z"/>
		<path fill="#4C626E" d="M62.526,56.115c-0.342,0-0.668-0.176-0.854-0.479c-0.236-0.387-0.183-0.884,0.13-1.212
			c2.687-2.813,5.075-5.942,7.305-9.564c0.084-0.137,0.199-0.251,0.337-0.333c9.747-5.848,16.445-15.857,19.921-29.764H79.283
			c-0.553,0-1-0.448-1-1V7.682c0-0.552,0.447-1,1-1h15.135c1.163,0,2.371,0.572,3.078,1.457c0.645,0.805,1.03,1.948,1.03,3.057
			c0,0.063-0.006,0.126-0.018,0.188c-4.54,23.661-16.885,39.114-35.698,44.69C62.717,56.102,62.621,56.115,62.526,56.115z
			 M70.683,46.115c-1.54,2.484-3.157,4.745-4.893,6.836c16.034-6.172,26.625-20.555,30.735-41.844
			c-0.021-0.625-0.248-1.291-0.591-1.719c-0.327-0.409-0.965-0.706-1.517-0.706H80.283v4.081h10.352
			c0.305,0,0.594,0.139,0.783,0.378c0.189,0.239,0.26,0.551,0.19,0.849C88.121,28.982,81.082,39.789,70.683,46.115z"/>
		<path fill="#4C626E" d="M37.797,56.25c-0.094,0-0.188-0.013-0.282-0.041C18.562,50.635,6.216,35.179,1.813,11.514
			c-0.179-1.243,0.144-2.458,0.878-3.375c0.023-0.029,0.048-0.056,0.074-0.082c0.899-0.899,1.984-1.374,3.14-1.374H21.04
			c0.552,0,1,0.448,1,1v6.081c0,0.552-0.448,1-1,1H10.958c3.469,13.884,10.169,23.94,19.927,29.903
			c0.129,0.079,0.239,0.187,0.321,0.314c2.541,3.97,4.865,7.013,7.313,9.579c0.313,0.327,0.366,0.824,0.131,1.211
			C38.466,56.074,38.139,56.25,37.797,56.25z M4.22,9.43c-0.362,0.478-0.524,1.131-0.434,1.759
			c3.97,21.334,14.583,35.758,30.789,41.923c-1.62-1.976-3.23-4.219-4.929-6.86C19.236,39.81,12.195,28.957,8.714,13.99
			c-0.069-0.297,0.001-0.609,0.191-0.849c0.19-0.239,0.478-0.378,0.783-0.378H20.04V8.682H5.905C5.291,8.682,4.739,8.927,4.22,9.43z
			"/>
		<path fill="#4C626E" d="M56.715,68.816H43.473c-2.638,0-4.784-2.146-4.784-4.783s2.146-4.783,4.784-4.783h13.242
			c2.638,0,4.784,2.146,4.784,4.783S59.353,68.816,56.715,68.816z M43.473,61.25c-1.535,0-2.784,1.249-2.784,2.783
			s1.249,2.783,2.784,2.783h13.242c1.535,0,2.784-1.249,2.784-2.783s-1.249-2.783-2.784-2.783H43.473z"/>
		<path fill="#4C626E" d="M43.336,61.385c-0.227,0-0.455-0.076-0.642-0.233c-14.483-12.139-22.79-29.953-22.79-48.875V2.952
			c0-0.552,0.448-1,1-1h58.378c0.553,0,1,0.448,1,1v9.324c0,18.805-8.306,36.618-22.787,48.872
			c-0.421,0.356-1.052,0.304-1.409-0.118c-0.356-0.421-0.304-1.052,0.118-1.409c14.031-11.873,22.078-29.129,22.078-47.345V3.952
			H21.905v8.324c0,18.329,8.046,35.584,22.075,47.342c0.423,0.354,0.479,0.985,0.124,1.409
			C43.906,61.263,43.622,61.385,43.336,61.385z"/>
		<path fill="#4C626E" d="M77.797,98.547H22.391c-0.276,0-0.541-0.114-0.729-0.316c-0.189-0.201-0.286-0.473-0.269-0.748
			c0.718-11.058,13.325-19.719,28.701-19.719c15.376,0,27.982,8.661,28.701,19.719c0.018,0.275-0.079,0.547-0.269,0.748
			C78.338,98.433,78.073,98.547,77.797,98.547z M23.501,96.547h53.187c-1.381-9.494-12.781-16.783-26.594-16.783
			C36.282,79.764,24.881,87.053,23.501,96.547z"/>
		<path fill="#4C626E" d="M69.958,85.709c-0.207,0-0.417-0.064-0.596-0.198c-6.042-4.496-10.723-10.658-13.18-17.35
			c-0.19-0.519,0.075-1.093,0.594-1.283c0.518-0.191,1.093,0.076,1.283,0.594c2.325,6.331,6.763,12.168,12.496,16.436
			c0.443,0.329,0.535,0.956,0.205,1.398C70.564,85.569,70.264,85.709,69.958,85.709z"/>
		<path fill="#4C626E" d="M30.23,85.709c-0.309,0-0.614-0.143-0.81-0.412c-0.325-0.446-0.226-1.072,0.22-1.396
			c5.827-4.237,10.144-9.916,12.485-16.423c0.188-0.52,0.759-0.789,1.279-0.603c0.52,0.188,0.79,0.761,0.603,1.28
			c-2.478,6.885-7.039,12.889-13.19,17.362C30.64,85.646,30.434,85.709,30.23,85.709z"/>
	</g>
</g>
<g id="Layer_2">
	<g>
		<path fill="none" d="M81.486,28.204c0.211-0.3,0.422-0.59,0.635-0.879c-0.356-0.332-0.7-0.696-1.014-1.137
			c-0.297-0.417-0.541-0.83-0.744-1.235c-0.491,1.427-0.972,2.859-1.445,4.295c0.038,0.026,0.083,0.041,0.12,0.068
			c0.721,0.517,1.429,1.051,2.125,1.601C80.412,29.892,80.521,28.987,81.486,28.204z"/>
		<path fill="none" d="M19.39,24.566c-1.318,0.533-2.862,0.801-4.621,0.737c0.276,0.34,0.558,0.673,0.829,1.022
			c1.431,1.845,2.835,3.704,4.249,5.556C19.698,29.449,19.624,27.006,19.39,24.566z"/>
		<g>
			<path fill="#D13920" d="M52.391,42.12h-2.973V22.932c-0.676,0.675-1.621,1.351-2.838,2.027c-1.216,0.676-2.297,1.216-3.243,1.622
				v-2.973c1.622-0.811,3.108-1.756,4.46-2.837c1.352-1.082,2.162-2.163,2.702-3.244h1.892V42.12z"/>
		</g>
	</g>
</g>
</svg>
