<?xml version="1.0" encoding="utf-8"?>
<!-- Generator: Adobe Illustrator 15.0.0, SVG Export Plug-In . SVG Version: 6.00 Build 0)  -->
<!DOCTYPE svg PUBLIC "-//W3C//DTD SVG 1.1//EN" "http://www.w3.org/Graphics/SVG/1.1/DTD/svg11.dtd">
<svg version="1.1" id="Layer_1" xmlns="http://www.w3.org/2000/svg" xmlns:xlink="http://www.w3.org/1999/xlink" x="0px" y="0px"
	 width="100px" height="100px" viewBox="0 0 100 100" enable-background="new 0 0 100 100" xml:space="preserve">
<g id="Layer_1_1_">
	<circle fill="#D13920" cx="30.942" cy="35.054" r="2.379">
	
		<animateTransform  type="rotate" fill="remove" to="360 32 34.98" restart="always" dur="15s" from="0 32 34.98" attributeType="XML" calcMode="linear" additive="replace" accumulate="none" attributeName="transform" repeatCount="indefinite">
		</animateTransform>
	</circle>
	<circle fill="#D13920" cx="30.942" cy="22.244" r="2.379">
	
		<animateTransform  type="rotate" fill="remove" to="360 32 34.98" restart="always" dur="15s" from="0 32 34.98" attributeType="XML" calcMode="linear" additive="replace" accumulate="none" attributeName="transform" repeatCount="indefinite">
		</animateTransform>
	</circle>
	<circle fill="#D13920" cx="30.942" cy="27.277" r="1.427">
	
		<animateTransform  type="rotate" fill="remove" to="360 32 34.98" restart="always" dur="15s" from="0 32 34.98" attributeType="XML" calcMode="linear" additive="replace" accumulate="none" attributeName="transform" repeatCount="indefinite">
		</animateTransform>
	</circle>
	<circle fill="#D13920" cx="30.942" cy="30.785" r="0.833">
	
		<animateTransform  type="rotate" fill="remove" to="360 32 34.98" restart="always" dur="15s" from="0 32 34.98" attributeType="XML" calcMode="linear" additive="replace" accumulate="none" attributeName="transform" repeatCount="indefinite">
		</animateTransform>
	</circle>
	<circle fill="#D13920" cx="30.942" cy="47.842" r="2.379">
	
		<animateTransform  type="rotate" fill="remove" to="360 32 34.98" restart="always" dur="15s" from="0 32 34.98" attributeType="XML" calcMode="linear" additive="replace" accumulate="none" attributeName="transform" repeatCount="indefinite">
		</animateTransform>
	</circle>
	<circle fill="#D13920" cx="30.942" cy="42.809" r="1.427">
	
		<animateTransform  type="rotate" fill="remove" to="360 32 34.98" restart="always" dur="15s" from="0 32 34.98" attributeType="XML" calcMode="linear" additive="replace" accumulate="none" attributeName="transform" repeatCount="indefinite">
		</animateTransform>
	</circle>
	<circle fill="#D13920" cx="30.942" cy="39.302" r="0.833">
	
		<animateTransform  type="rotate" fill="remove" to="360 32 34.98" restart="always" dur="15s" from="0 32 34.98" attributeType="XML" calcMode="linear" additive="replace" accumulate="none" attributeName="transform" repeatCount="indefinite">
		</animateTransform>
	</circle>
	<circle fill="#D13920" cx="21.892" cy="25.992" r="2.379">
	
		<animateTransform  type="rotate" fill="remove" to="360 32 34.98" restart="always" dur="15s" from="0 32 34.98" attributeType="XML" calcMode="linear" additive="replace" accumulate="none" attributeName="transform" repeatCount="indefinite">
		</animateTransform>
	</circle>
	<circle fill="#D13920" cx="25.451" cy="29.551" r="1.427">
	
		<animateTransform  type="rotate" fill="remove" to="360 32 34.98" restart="always" dur="15s" from="0 32 34.98" attributeType="XML" calcMode="linear" additive="replace" accumulate="none" attributeName="transform" repeatCount="indefinite">
		</animateTransform>
	</circle>
	<circle fill="#D13920" cx="27.93" cy="32.031" r="0.833">
	
		<animateTransform  type="rotate" fill="remove" to="360 32 34.98" restart="always" dur="15s" from="0 32 34.98" attributeType="XML" calcMode="linear" additive="replace" accumulate="none" attributeName="transform" repeatCount="indefinite">
		</animateTransform>
	</circle>
	<circle fill="#D13920" cx="39.993" cy="44.094" r="2.379">
	
		<animateTransform  type="rotate" fill="remove" to="360 32 34.98" restart="always" dur="15s" from="0 32 34.98" attributeType="XML" calcMode="linear" additive="replace" accumulate="none" attributeName="transform" repeatCount="indefinite">
		</animateTransform>
	</circle>
	<circle fill="#D13920" cx="36.434" cy="40.535" r="1.427">
	
		<animateTransform  type="rotate" fill="remove" to="360 32 34.98" restart="always" dur="15s" from="0 32 34.98" attributeType="XML" calcMode="linear" additive="replace" accumulate="none" attributeName="transform" repeatCount="indefinite">
		</animateTransform>
	</circle>
	<circle fill="#D13920" cx="33.954" cy="38.054" r="0.833">
	
		<animateTransform  type="rotate" fill="remove" to="360 32 34.98" restart="always" dur="15s" from="0 32 34.98" attributeType="XML" calcMode="linear" additive="replace" accumulate="none" attributeName="transform" repeatCount="indefinite">
		</animateTransform>
	</circle>
	<circle fill="#D13920" cx="18.143" cy="35.044" r="2.379">
	
		<animateTransform  type="rotate" fill="remove" to="360 32 34.98" restart="always" dur="15s" from="0 32 34.98" attributeType="XML" calcMode="linear" additive="replace" accumulate="none" attributeName="transform" repeatCount="indefinite">
		</animateTransform>
	</circle>
	<circle fill="#D13920" cx="23.176" cy="35.042" r="1.427">
	
		<animateTransform  type="rotate" fill="remove" to="360 32 34.98" restart="always" dur="15s" from="0 32 34.98" attributeType="XML" calcMode="linear" additive="replace" accumulate="none" attributeName="transform" repeatCount="indefinite">
		</animateTransform>
	</circle>
	<circle fill="#D13920" cx="26.683" cy="35.042" r="0.833">
	
		<animateTransform  type="rotate" fill="remove" to="360 32 34.98" restart="always" dur="15s" from="0 32 34.98" attributeType="XML" calcMode="linear" additive="replace" accumulate="none" attributeName="transform" repeatCount="indefinite">
		</animateTransform>
	</circle>
	<circle fill="#D13920" cx="43.741" cy="35.044" r="2.379">
	
		<animateTransform  type="rotate" fill="remove" to="360 32 34.98" restart="always" dur="15s" from="0 32 34.98" attributeType="XML" calcMode="linear" additive="replace" accumulate="none" attributeName="transform" repeatCount="indefinite">
		</animateTransform>
	</circle>
	<circle fill="#D13920" cx="38.709" cy="35.042" r="1.427">
	
		<animateTransform  type="rotate" fill="remove" to="360 32 34.98" restart="always" dur="15s" from="0 32 34.98" attributeType="XML" calcMode="linear" additive="replace" accumulate="none" attributeName="transform" repeatCount="indefinite">
		</animateTransform>
	</circle>
	<circle fill="#D13920" cx="35.202" cy="35.042" r="0.833">
	
		<animateTransform  type="rotate" fill="remove" to="360 32 34.98" restart="always" dur="15s" from="0 32 34.98" attributeType="XML" calcMode="linear" additive="replace" accumulate="none" attributeName="transform" repeatCount="indefinite">
		</animateTransform>
	</circle>
	<circle fill="#D13920" cx="21.892" cy="44.094" r="2.379">
	
		<animateTransform  type="rotate" fill="remove" to="360 32 34.98" restart="always" dur="15s" from="0 32 34.98" attributeType="XML" calcMode="linear" additive="replace" accumulate="none" attributeName="transform" repeatCount="indefinite">
		</animateTransform>
	</circle>
	<circle fill="#D13920" cx="25.451" cy="40.535" r="1.427">
	
		<animateTransform  type="rotate" fill="remove" to="360 32 34.98" restart="always" dur="15s" from="0 32 34.98" attributeType="XML" calcMode="linear" additive="replace" accumulate="none" attributeName="transform" repeatCount="indefinite">
		</animateTransform>
	</circle>
	<circle fill="#D13920" cx="27.931" cy="38.054" r="0.833">
	
		<animateTransform  type="rotate" fill="remove" to="360 32 34.98" restart="always" dur="15s" from="0 32 34.98" attributeType="XML" calcMode="linear" additive="replace" accumulate="none" attributeName="transform" repeatCount="indefinite">
		</animateTransform>
	</circle>
	<circle fill="#D13920" cx="39.993" cy="25.992" r="2.379">
	
		<animateTransform  type="rotate" fill="remove" to="360 32 34.98" restart="always" dur="15s" from="0 32 34.98" attributeType="XML" calcMode="linear" additive="replace" accumulate="none" attributeName="transform" repeatCount="indefinite">
		</animateTransform>
	</circle>
	<circle fill="#D13920" cx="36.434" cy="29.551" r="1.427">
	
		<animateTransform  type="rotate" fill="remove" to="360 32 34.98" restart="always" dur="15s" from="0 32 34.98" attributeType="XML" calcMode="linear" additive="replace" accumulate="none" attributeName="transform" repeatCount="indefinite">
		</animateTransform>
	</circle>
	<circle fill="#D13920" cx="33.954" cy="32.031" r="0.833">
	
		<animateTransform  type="rotate" fill="remove" to="360 32 34.98" restart="always" dur="15s" from="0 32 34.98" attributeType="XML" calcMode="linear" additive="replace" accumulate="none" attributeName="transform" repeatCount="indefinite">
		</animateTransform>
	</circle>
</g>
<g id="Layer_2">
	<g>
		<path fill="#FFFFFF" d="M2.994,54.164v6.334c0,1.842,1.006,3.24,2.922,3.24c1.841,0,3.094-1.547,3.094-3.389v-6.187h2.971v12.129
			H9.304l-0.196-1.646c-1.252,1.228-2.406,1.815-4.1,1.815C2.111,66.464,0,64.277,0,60.521v-6.357H2.994L2.994,54.164z"/>
		<path fill="#FFFFFF" d="M23.545,66.268v-6.334c0-1.842-1.007-3.24-2.922-3.24c-1.841,0-3.094,1.547-3.094,3.389v6.188h-2.971
			V54.139h2.676l0.196,1.646c1.228-1.203,2.455-1.816,3.977-1.816c2.848,0,5.13,2.137,5.13,5.94v6.358H23.545z"/>
		<rect x="29.119" y="54.115" fill="#FFFFFF" width="2.996" height="12.152"/>
		<path fill="#FFFFFF" d="M45.936,54.139l2.652,9.109l2.775-9.109h3.313l-4.222,12.178h-3.486l-1.252-3.584l-1.079-4.051
			l-1.082,4.051l-1.252,3.584h-3.486l-4.249-12.178h3.339l2.774,9.109l2.627-9.109H45.936z"/>
		<path fill="#FFFFFF" d="M59.76,61.283c0.195,1.498,1.498,2.578,3.609,2.578c1.104,0,2.554-0.418,3.24-1.129l1.914,1.89
			c-1.275,1.325-3.361,1.965-5.203,1.965c-4.174,0-6.654-2.578-6.654-6.458c0-3.682,2.505-6.334,6.434-6.334
			c4.051,0,6.58,2.504,6.113,7.488H59.76z M66.339,58.803c-0.196-1.57-1.423-2.354-3.142-2.354c-1.621,0-2.945,0.784-3.389,2.354
			H66.339z"/>
		<path fill="#FFFFFF" d="M74.516,49.105v6.701c0.711-1.252,2.699-1.938,3.978-1.938c3.534,0,6.161,2.158,6.161,6.334
			c0,3.977-2.676,6.334-6.233,6.334c-1.476,0-2.971-0.49-3.903-1.939l-0.197,1.67H71.52V49.105H74.516z M74.713,60.204
			c0,2.185,1.619,3.56,3.51,3.56c1.916,0,3.438-1.447,3.438-3.56c0-2.187-1.522-3.536-3.438-3.536
			C76.332,56.667,74.713,58.092,74.713,60.204z"/>
		<path fill="#FFFFFF" d="M89.861,49.105v6.701c0.709-1.252,2.699-1.938,3.977-1.938c3.535,0,6.162,2.158,6.162,6.334
			c0,3.977-2.676,6.334-6.234,6.334c-1.475,0-2.972-0.49-3.904-1.939l-0.196,1.67h-2.799V49.105H89.861z M90.057,60.204
			c0,2.185,1.621,3.56,3.51,3.56c1.916,0,3.439-1.447,3.439-3.56c0-2.187-1.521-3.536-3.439-3.536
			C91.678,56.667,90.057,58.092,90.057,60.204z"/>
	</g>
</g>
<text transform="matrix(1 0 0 1 65.5527 76.376)" fill="#FFFFFF" font-family="'TimesNewRomanPS-ItalicMT'" font-size="10">s</text>
<text transform="matrix(1 0 0 1 69.4443 76.376)" fill="#FFFFFF" font-family="'TimesNewRomanPS-ItalicMT'" font-size="10">o</text>
<text transform="matrix(1 0 0 1 74.4443 76.376)" fill="#FFFFFF" font-family="'TimesNewRomanPS-ItalicMT'" font-size="10">f</text>
<text transform="matrix(1 0 0 1 77.2227 76.376)" fill="#FFFFFF" font-family="'TimesNewRomanPS-ItalicMT'" font-size="10">t</text>
<text transform="matrix(1 0 0 1 80.001 76.376)" fill="#FFFFFF" font-family="'TimesNewRomanPS-ItalicMT'" font-size="10">w</text>
<text transform="matrix(1 0 0 1 86.6709 76.376)" fill="#FFFFFF" font-family="'TimesNewRomanPS-ItalicMT'" font-size="10">a</text>
<text transform="matrix(1 0 0 1 91.6709 76.376)" fill="#FFFFFF" font-family="'TimesNewRomanPS-ItalicMT'" font-size="10">r</text>
<text transform="matrix(1 0 0 1 95.5625 76.376)" fill="#FFFFFF" font-family="'TimesNewRomanPS-ItalicMT'" font-size="10">e</text>
</svg>
