<?xml version="1.0" encoding="utf-8"?>
<!DOCTYPE svg PUBLIC "-//W3C//DTD SVG 1.1//EN" "http://www.w3.org/Graphics/SVG/1.1/DTD/svg11.dtd">
<svg version="1.1" id="months" xmlns="http://www.w3.org/2000/svg" xmlns:xlink="http://www.w3.org/1999/xlink" x="100%" y="100%"
	 width="100%" height="100%" viewBox="0 0 100 100" enable-background="new 0 0 100 100" xml:space="preserve">
<g>
	<g>
		<path fill="#4C626E" d="M24.349,24.098h4.547c1.669,0,3.024-1.067,3.024-2.402V2.275c0-1.33-1.342-2.396-3.024-2.396h-4.547
			c-1.669,0-3.031,1.072-3.031,2.396v19.421C21.318,23.031,22.68,24.098,24.349,24.098z"/>
		<path fill="#4C626E" d="M71.887,24.098h4.541c1.688,0,3.023-1.067,3.023-2.402V2.275c0-1.33-1.336-2.396-3.023-2.396h-4.541
			c-1.67,0-3.025,1.072-3.025,2.396v19.421C68.869,23.031,70.217,24.098,71.887,24.098z"/>
		<path fill="#4C626E" d="M95.129,9.146H83.08V24.02c0,3.32-2.986,6.024-6.66,6.024h-4.539c-3.674,0-6.666-2.704-6.666-6.024V9.146
			H35.543V24.02c0,3.32-2.986,6.024-6.666,6.024h-4.528c-3.661,0-6.66-2.704-6.66-6.024V9.146H5.635C3.631,9.146,2,10.784,2,12.794
			v83.451c0,2.01,1.631,3.635,2.229,3.635h89.514c3.402,0,5.047-1.625,5.047-3.635V12.782C98.783,10.784,97.139,9.146,95.129,9.146z
			 M93.176,91.634c0,3.621-3.121,3.307-3.121,3.307H57.424c0,0,19.953-9.998,35.752-24.199
			C93.176,70.741,93.176,87.446,93.176,91.634z M93.863,60.724c-1.367,5.4-4.393,11.656-9.91,7.564
			c-8.039-5.953-15.965-11.008-16.986,0.965C66.125,79.335,47.488,93.046,43.43,95.911H8.056c-0.636,0-1.137-0.508-1.137-1.137
			V43.333c0-0.637,0.507-1.144,1.137-1.144h84.67c0.623,0,1.143,0.507,1.143,1.144L93.863,60.724L93.863,60.724z"/>
		<rect x="21.318" y="51.065" fill="#D13920" width="14.142" height="14.135"/>
		<rect x="44.579" y="51.065" fill="#D13920" width="14.13" height="14.135"/>
		<rect x="21.318" y="72.509" fill="#D13920" width="14.142" height="14.135"/>
		<path fill="#D13920" d="M44.579,86.644h4.09c2.987-2.801,7.502-7.43,10.04-10.609v-3.525h-14.13V86.644z"/>
		<path fill="#D13920" d="M67.096,57.731c1.426-1.395,3.141-1.818,4.682-1.818c2.91,0,6.113,1.625,9.447,3.828v-8.676H67.096V57.731
			z"/>
	</g>
</g>
</svg>
