<?xml version="1.0" encoding="utf-8"?>
<!DOCTYPE svg PUBLIC "-//W3C//DTD SVG 1.1//EN" "http://www.w3.org/Graphics/SVG/1.1/DTD/svg11.dtd">
<svg version="1.1" id="no_passion" xmlns="http://www.w3.org/2000/svg" xmlns:xlink="http://www.w3.org/1999/xlink" x="100%" y="100%"
	 width="100%" height="100%" viewBox="0 0 100 100" enable-background="new 0 0 100 100" xml:space="preserve">
<g>
	<path fill="#4C626E" d="M50,0C22.431,0,0,22.43,0,50s22.43,50,50,50c27.57,0,50-22.43,50-50S77.57,0,50,0z M50,94.595
		c-12.249,0-23.359-4.966-31.427-12.987c-3.222-3.203-5.957-6.895-8.086-10.953C7.245,64.477,5.406,57.449,5.406,50
		C5.406,25.41,25.411,5.405,50,5.405c11.664,0,22.293,4.503,30.248,11.859c4.125,3.813,7.531,8.394,9.986,13.513
		c2.793,5.823,4.361,12.344,4.361,19.223C94.596,74.59,74.59,94.595,50,94.595z"/>
	
		<rect x="21.85" y="58.787" transform="matrix(-0.979 0.204 -0.204 -0.979 111.4919 111.4871)" fill="#D13920" width="56.299" height="5.406"/>
	<circle fill="#D13920" cx="33.277" cy="39.189" r="5.406"/>
	<circle fill="#D13920" cx="66.723" cy="39.189" r="5.406"/>
</g>
</svg>
