<?xml version="1.0" encoding="utf-8"?>
<!DOCTYPE svg PUBLIC "-//W3C//DTD SVG 1.1//EN" "http://www.w3.org/Graphics/SVG/1.1/DTD/svg11.dtd">
<svg version="1.1" id="none" xmlns="http://www.w3.org/2000/svg" xmlns:xlink="http://www.w3.org/1999/xlink" x="100%" y="100%"
	 width="100%" height="100%" viewBox="0 0 100 100" enable-background="new 0 0 100 100" xml:space="preserve">
<g id="Layer_1">
	<g id="People">
		<g id="Icon-80">
			<path fill="#4C626E" d="M49.964,0C22.456,0,0.076,22.38,0.076,49.889c0,27.508,22.38,49.888,49.888,49.888
				c27.509,0,49.889-22.38,49.889-49.888C99.853,22.38,77.473,0,49.964,0z M49.964,96.451c-25.674,0-46.562-20.889-46.562-46.563
				c0-25.675,20.888-46.563,46.562-46.563c25.675,0,46.563,20.888,46.563,46.563C96.527,75.563,75.639,96.451,49.964,96.451z"/>
		</g>
	</g>
</g>
<g id="Layer_2">
	<g id="People_1_">
		<g id="Icon-80_1_">
			<path fill="#D13920" d="M49.964,66.518c-1.786,0-3.465-0.7-4.727-1.971c-0.648-0.65-1.7-0.655-2.352-0.003
				c-0.651,0.644-0.654,1.697-0.008,2.35c1.892,1.902,4.41,2.95,7.086,2.95c5.503,0,9.979-4.477,9.979-9.978V39.911
				c0-5.502-4.476-9.978-9.979-9.978c-5.501,0-9.977,4.475-9.977,9.978v19.956c0,0.919,0.744,1.662,1.663,1.662
				c0.92,0,1.663-0.743,1.663-1.662V39.911c0-3.668,2.984-6.652,6.652-6.652c3.669,0,6.652,2.984,6.652,6.652v19.956
				C56.616,63.534,53.633,66.518,49.964,66.518z"/>
		</g>
	</g>
</g>
</svg>
