<?xml version="1.0" encoding="utf-8"?>
<!DOCTYPE svg PUBLIC "-//W3C//DTD SVG 1.1//EN" "http://www.w3.org/Graphics/SVG/1.1/DTD/svg11.dtd">
<svg version="1.1" id="phone_group" xmlns="http://www.w3.org/2000/svg" xmlns:xlink="http://www.w3.org/1999/xlink" x="100%" y="100%"
	 width="100%" height="100%" viewBox="0 0 100 100" enable-background="new 0 0 100 100" xml:space="preserve">
<g id="Layer_1">
	<g>
		<g>
			<defs>
				<rect id="SVGID_1_" x="-13.993" y="21.803" width="59.108" height="59.108"/>
			</defs>
			<clipPath id="SVGID_2_">
				<use xlink:href="#SVGID_1_"  overflow="visible"/>
			</clipPath>
			<g clip-path="url(#SVGID_2_)">
				<defs>
					<rect id="SVGID_3_" x="-13.993" y="21.803" width="59.108" height="59.108"/>
				</defs>
				<clipPath id="SVGID_4_">
					<use xlink:href="#SVGID_3_"  overflow="visible"/>
				</clipPath>
				<path clip-path="url(#SVGID_4_)" fill="#4C626E" d="M28.345,21.803H2.776c-1.567,0-2.842,1.274-2.842,2.842V78.03
					c0,1.566,1.275,2.842,2.842,2.842h25.569c1.567,0,2.842-1.275,2.842-2.842V24.645C31.187,23.077,29.912,21.803,28.345,21.803
					 M30.56,78.03c0,1.221-0.994,2.215-2.215,2.215H2.776c-1.221,0-2.215-0.994-2.215-2.215V24.645c0-1.222,0.994-2.215,2.215-2.215
					h25.569c1.221,0,2.215,0.994,2.215,2.215V78.03z"/>
				<path clip-path="url(#SVGID_4_)" fill="#4C626E" d="M2.366,29.107v44.459h26.389l0-44.459H2.366z M28.128,72.94H2.993V29.734
					h25.135V72.94z"/>
			</g>
			<g clip-path="url(#SVGID_2_)">
				<defs>
					<rect id="SVGID_5_" x="-13.993" y="21.803" width="59.108" height="59.108"/>
				</defs>
				<clipPath id="SVGID_6_">
					<use xlink:href="#SVGID_5_"  overflow="visible"/>
				</clipPath>
				<path clip-path="url(#SVGID_6_)" fill="#D13920" d="M17.72,26.33c0.318,0,0.577-0.26,0.577-0.577s-0.258-0.577-0.577-0.577H13.4
					c-0.317,0-0.576,0.259-0.576,0.577s0.259,0.577,0.576,0.577H17.72z"/>
				<path clip-path="url(#SVGID_6_)" fill="#D13920" d="M17.524,76.624c0-1.083-0.881-1.963-1.963-1.963s-1.964,0.88-1.964,1.963
					s0.881,1.965,1.964,1.965S17.524,77.707,17.524,76.624 M14.223,76.626c0-0.739,0.6-1.339,1.337-1.339
					c0.737,0,1.337,0.6,1.337,1.339c0,0.736-0.6,1.337-1.337,1.337C14.823,77.963,14.223,77.362,14.223,76.626"/>
			</g>
		</g>
	</g>
	<g>
		<g>
			<defs>
				<rect id="SVGID_7_" x="20.556" y="21.646" width="59.108" height="59.108"/>
			</defs>
			<clipPath id="SVGID_8_">
				<use xlink:href="#SVGID_7_"  overflow="visible"/>
			</clipPath>
			<g clip-path="url(#SVGID_8_)">
				<defs>
					<rect id="SVGID_9_" x="20.556" y="21.646" width="59.108" height="59.108"/>
				</defs>
				<clipPath id="SVGID_10_">
					<use xlink:href="#SVGID_9_"  overflow="visible"/>
				</clipPath>
				<path clip-path="url(#SVGID_10_)" fill="#4C626E" d="M62.895,21.646H37.325c-1.567,0-2.842,1.274-2.842,2.842v53.386
					c0,1.566,1.275,2.843,2.842,2.843h25.569c1.567,0,2.842-1.276,2.842-2.843V24.488C65.736,22.921,64.462,21.646,62.895,21.646
					 M65.109,77.874c0,1.221-0.994,2.215-2.215,2.215H37.325c-1.221,0-2.215-0.994-2.215-2.215V24.488
					c0-1.222,0.994-2.215,2.215-2.215h25.569c1.221,0,2.215,0.994,2.215,2.215V77.874z"/>
				<path clip-path="url(#SVGID_10_)" fill="#4C626E" d="M36.916,28.952V73.41h26.388V28.952H36.916z M62.677,72.784H37.542V29.578
					h25.135V72.784z"/>
			</g>
			<g clip-path="url(#SVGID_8_)">
				<defs>
					<rect id="SVGID_11_" x="20.556" y="21.646" width="59.108" height="59.108"/>
				</defs>
				<clipPath id="SVGID_12_">
					<use xlink:href="#SVGID_11_"  overflow="visible"/>
				</clipPath>
				<path clip-path="url(#SVGID_12_)" fill="#D13920" d="M52.27,26.173c0.318,0,0.577-0.259,0.577-0.577
					c0-0.318-0.258-0.577-0.577-0.577h-4.32c-0.318,0-0.577,0.259-0.577,0.577c0,0.317,0.259,0.577,0.577,0.577H52.27z"/>
				<path clip-path="url(#SVGID_12_)" fill="#D13920" d="M52.073,76.468c0-1.083-0.881-1.963-1.963-1.963
					c-1.082,0-1.963,0.88-1.963,1.963s0.881,1.965,1.963,1.965C51.192,78.433,52.073,77.551,52.073,76.468 M48.773,76.47
					c0-0.739,0.6-1.339,1.337-1.339c0.738,0,1.337,0.6,1.337,1.339c0,0.737-0.6,1.337-1.337,1.337
					C49.373,77.807,48.773,77.207,48.773,76.47"/>
			</g>
		</g>
	</g>
	<g>
		<g>
			<defs>
				<rect id="SVGID_13_" x="54.979" y="21.761" width="59.108" height="59.108"/>
			</defs>
			<clipPath id="SVGID_14_">
				<use xlink:href="#SVGID_13_"  overflow="visible"/>
			</clipPath>
			<g clip-path="url(#SVGID_14_)">
				<defs>
					<rect id="SVGID_15_" x="54.979" y="21.761" width="59.108" height="59.108"/>
				</defs>
				<clipPath id="SVGID_16_">
					<use xlink:href="#SVGID_15_"  overflow="visible"/>
				</clipPath>
				<path clip-path="url(#SVGID_16_)" fill="#4C626E" d="M97.317,21.761H71.749c-1.567,0-2.843,1.274-2.843,2.842v53.386
					c0,1.566,1.275,2.843,2.843,2.843h25.568c1.567,0,2.842-1.276,2.842-2.843V24.603C100.159,23.035,98.885,21.761,97.317,21.761
					 M99.533,77.988c0,1.221-0.994,2.215-2.216,2.215H71.749c-1.222,0-2.216-0.994-2.216-2.215V24.603
					c0-1.222,0.994-2.215,2.216-2.215h25.568c1.222,0,2.216,0.994,2.216,2.215V77.988z"/>
				<path clip-path="url(#SVGID_16_)" fill="#4C626E" d="M71.339,29.066v44.458h26.389l-0.001-44.458H71.339z M97.101,72.898H71.966
					V29.692h25.135V72.898z"/>
			</g>
			<g clip-path="url(#SVGID_14_)">
				<defs>
					<rect id="SVGID_17_" x="54.979" y="21.761" width="59.108" height="59.108"/>
				</defs>
				<clipPath id="SVGID_18_">
					<use xlink:href="#SVGID_17_"  overflow="visible"/>
				</clipPath>
				<path clip-path="url(#SVGID_18_)" fill="#D13920" d="M86.693,26.288c0.317,0,0.576-0.259,0.576-0.577
					c0-0.318-0.258-0.577-0.576-0.577h-4.32c-0.317,0-0.576,0.259-0.576,0.577c0,0.317,0.259,0.577,0.576,0.577H86.693z"/>
				<path clip-path="url(#SVGID_18_)" fill="#D13920" d="M86.497,76.582c0-1.083-0.881-1.963-1.964-1.963
					c-1.082,0-1.964,0.88-1.964,1.963s0.882,1.965,1.964,1.965C85.616,78.547,86.497,77.665,86.497,76.582 M83.196,76.584
					c0-0.739,0.6-1.339,1.337-1.339s1.337,0.6,1.337,1.339c0,0.737-0.6,1.337-1.337,1.337S83.196,77.321,83.196,76.584"/>
			</g>
		</g>
	</g>
</g>
<g id="Layer_2" display="none">
	<g display="inline">
		<g>
			<defs>
				<rect id="SVGID_19_" x="-14.119" y="22.303" width="59.108" height="59.108"/>
			</defs>
			<clipPath id="SVGID_20_">
				<use xlink:href="#SVGID_19_"  overflow="visible"/>
			</clipPath>
			<g clip-path="url(#SVGID_20_)">
				<defs>
					<rect id="SVGID_21_" x="-14.119" y="22.303" width="59.108" height="59.108"/>
				</defs>
				<clipPath id="SVGID_22_">
					<use xlink:href="#SVGID_21_"  overflow="visible"/>
				</clipPath>
				<path clip-path="url(#SVGID_22_)" fill="#4C626E" d="M28.219,22.303H2.65c-1.567,0-2.842,1.274-2.842,2.842V78.53
					c0,1.566,1.275,2.843,2.842,2.843h25.569c1.567,0,2.842-1.276,2.842-2.843V25.145C31.061,23.577,29.787,22.303,28.219,22.303
					 M30.435,78.53c0,1.221-0.994,2.215-2.216,2.215H2.65c-1.221,0-2.215-0.994-2.215-2.215V25.145c0-1.222,0.994-2.215,2.215-2.215
					h25.569c1.222,0,2.216,0.994,2.216,2.215V78.53z"/>
				<path clip-path="url(#SVGID_22_)" fill="#4C626E" d="M2.241,29.608v44.458h26.389l0-44.458H2.241z M28.002,73.44H2.867V30.234
					h25.135V73.44z"/>
			</g>
			<g clip-path="url(#SVGID_20_)">
				<defs>
					<rect id="SVGID_23_" x="-14.119" y="22.303" width="59.108" height="59.108"/>
				</defs>
				<clipPath id="SVGID_24_">
					<use xlink:href="#SVGID_23_"  overflow="visible"/>
				</clipPath>
				<path clip-path="url(#SVGID_24_)" fill="#D13920" d="M17.595,26.83c0.318,0,0.577-0.259,0.577-0.577
					c0-0.318-0.258-0.577-0.577-0.577h-4.32c-0.318,0-0.577,0.259-0.577,0.577c0,0.317,0.259,0.577,0.577,0.577H17.595z"/>
				<path clip-path="url(#SVGID_24_)" fill="#D13920" d="M17.399,77.124c0-1.083-0.881-1.963-1.964-1.963
					c-1.082,0-1.963,0.88-1.963,1.963s0.881,1.965,1.963,1.965C16.518,79.089,17.399,78.207,17.399,77.124 M14.098,77.126
					c0-0.739,0.6-1.339,1.337-1.339c0.738,0,1.337,0.6,1.337,1.339c0,0.737-0.6,1.337-1.337,1.337
					C14.698,78.463,14.098,77.863,14.098,77.126"/>
			</g>
		</g>
	</g>
	<g display="inline">
		<g>
			<defs>
				<rect id="SVGID_25_" x="20.556" y="21.646" width="59.108" height="59.108"/>
			</defs>
			<clipPath id="SVGID_26_">
				<use xlink:href="#SVGID_25_"  overflow="visible"/>
			</clipPath>
			<g clip-path="url(#SVGID_26_)">
				<defs>
					<rect id="SVGID_27_" x="20.556" y="21.646" width="59.108" height="59.108"/>
				</defs>
				<clipPath id="SVGID_28_">
					<use xlink:href="#SVGID_27_"  overflow="visible"/>
				</clipPath>
				<path clip-path="url(#SVGID_28_)" fill="#4C626E" d="M62.895,21.646H37.325c-1.567,0-2.842,1.274-2.842,2.842v53.386
					c0,1.566,1.275,2.843,2.842,2.843h25.569c1.567,0,2.842-1.276,2.842-2.843V24.488C65.736,22.921,64.462,21.646,62.895,21.646
					 M65.109,77.874c0,1.221-0.994,2.215-2.215,2.215H37.325c-1.221,0-2.215-0.994-2.215-2.215V24.488
					c0-1.222,0.994-2.215,2.215-2.215h25.569c1.221,0,2.215,0.994,2.215,2.215V77.874z"/>
				<path clip-path="url(#SVGID_28_)" fill="#4C626E" d="M36.916,28.952V73.41h26.388V28.952H36.916z M62.677,72.784H37.542V29.578
					h25.135V72.784z"/>
			</g>
			<g clip-path="url(#SVGID_26_)">
				<defs>
					<rect id="SVGID_29_" x="20.556" y="21.646" width="59.108" height="59.108"/>
				</defs>
				<clipPath id="SVGID_30_">
					<use xlink:href="#SVGID_29_"  overflow="visible"/>
				</clipPath>
				<path clip-path="url(#SVGID_30_)" fill="#D13920" d="M52.27,26.173c0.318,0,0.577-0.259,0.577-0.577
					c0-0.318-0.258-0.577-0.577-0.577h-4.32c-0.318,0-0.577,0.259-0.577,0.577c0,0.317,0.259,0.577,0.577,0.577H52.27z"/>
				<path clip-path="url(#SVGID_30_)" fill="#D13920" d="M52.073,76.468c0-1.083-0.881-1.963-1.963-1.963
					c-1.082,0-1.963,0.88-1.963,1.963s0.881,1.965,1.963,1.965C51.192,78.433,52.073,77.551,52.073,76.468 M48.773,76.47
					c0-0.739,0.6-1.339,1.337-1.339c0.738,0,1.337,0.6,1.337,1.339c0,0.737-0.6,1.337-1.337,1.337
					C49.373,77.807,48.773,77.207,48.773,76.47"/>
			</g>
		</g>
	</g>
	<g display="inline">
		<g>
			<defs>
				<rect id="SVGID_31_" x="54.979" y="21.761" width="59.108" height="59.108"/>
			</defs>
			<clipPath id="SVGID_32_">
				<use xlink:href="#SVGID_31_"  overflow="visible"/>
			</clipPath>
			<g clip-path="url(#SVGID_32_)">
				<defs>
					<rect id="SVGID_33_" x="54.979" y="21.761" width="59.108" height="59.108"/>
				</defs>
				<clipPath id="SVGID_34_">
					<use xlink:href="#SVGID_33_"  overflow="visible"/>
				</clipPath>
				<path clip-path="url(#SVGID_34_)" fill="#4C626E" d="M97.317,21.761H71.749c-1.567,0-2.843,1.274-2.843,2.842v53.386
					c0,1.566,1.275,2.843,2.843,2.843h25.568c1.567,0,2.842-1.276,2.842-2.843V24.603C100.159,23.035,98.885,21.761,97.317,21.761
					 M99.533,77.988c0,1.221-0.994,2.215-2.216,2.215H71.749c-1.222,0-2.216-0.994-2.216-2.215V24.603
					c0-1.222,0.994-2.215,2.216-2.215h25.568c1.222,0,2.216,0.994,2.216,2.215V77.988z"/>
				<path clip-path="url(#SVGID_34_)" fill="#4C626E" d="M71.339,29.066v44.458h26.389l-0.001-44.458H71.339z M97.101,72.898H71.966
					V29.692h25.135V72.898z"/>
			</g>
			<g clip-path="url(#SVGID_32_)">
				<defs>
					<rect id="SVGID_35_" x="54.979" y="21.761" width="59.108" height="59.108"/>
				</defs>
				<clipPath id="SVGID_36_">
					<use xlink:href="#SVGID_35_"  overflow="visible"/>
				</clipPath>
				<path clip-path="url(#SVGID_36_)" fill="#D13920" d="M86.693,26.288c0.317,0,0.576-0.259,0.576-0.577
					c0-0.318-0.258-0.577-0.576-0.577h-4.32c-0.317,0-0.576,0.259-0.576,0.577c0,0.317,0.259,0.577,0.576,0.577H86.693z"/>
				<path clip-path="url(#SVGID_36_)" fill="#D13920" d="M86.497,76.582c0-1.083-0.881-1.963-1.964-1.963
					c-1.082,0-1.964,0.88-1.964,1.963s0.882,1.965,1.964,1.965C85.616,78.547,86.497,77.665,86.497,76.582 M83.196,76.584
					c0-0.739,0.6-1.339,1.337-1.339s1.337,0.6,1.337,1.339c0,0.737-0.6,1.337-1.337,1.337S83.196,77.321,83.196,76.584"/>
			</g>
		</g>
	</g>
	<g display="inline">
		<path fill="#D13920" d="M28.439,21.994H2.844C1.276,21.994,0,23.269,0,24.837v53.44c0,1.567,1.276,2.845,2.844,2.845h25.595
			c1.569,0,2.844-1.279,2.844-2.845v-53.44C31.284,23.269,30.008,21.994,28.439,21.994z M30.657,78.277
			c0,1.221-0.995,2.215-2.218,2.215H2.844c-1.222,0-2.216-0.994-2.216-2.215v-53.44c0-1.223,0.994-2.216,2.216-2.216h25.595
			c1.223,0,2.218,0.994,2.218,2.216V78.277z"/>
		<path fill="#D13920" d="M2.435,29.306V73.81h26.415l0-44.504H2.435z M28.222,73.182H3.063V29.934h25.16V73.182z"/>
	</g>
	<g display="inline">
		<path fill="#D13920" d="M17.846,26.042c0.319,0,0.579-0.26,0.579-0.579c0-0.319-0.259-0.579-0.579-0.579h-4.334
			c-0.318,0-0.578,0.26-0.578,0.579c0,0.318,0.26,0.579,0.578,0.579H17.846z"/>
		<path fill="#D13920" d="M17.649,76.505c0-1.087-0.884-1.97-1.97-1.97c-1.086,0-1.97,0.883-1.97,1.97s0.884,1.972,1.97,1.972
			C16.766,78.477,17.649,77.592,17.649,76.505z M14.338,76.507c0-0.741,0.602-1.343,1.341-1.343c0.74,0,1.342,0.602,1.342,1.343
			c0,0.739-0.602,1.341-1.342,1.341C14.939,77.848,14.338,77.246,14.338,76.507z"/>
	</g>
	<g display="inline">
		<path fill="#D13920" d="M62.856,21.744H37.261c-1.568,0-2.844,1.275-2.844,2.844v53.44c0,1.567,1.276,2.845,2.844,2.845h25.595
			c1.568,0,2.844-1.279,2.844-2.845v-53.44C65.7,23.019,64.425,21.744,62.856,21.744z M65.074,78.027
			c0,1.221-0.995,2.215-2.218,2.215H37.261c-1.222,0-2.216-0.994-2.216-2.215v-53.44c0-1.223,0.994-2.216,2.216-2.216h25.595
			c1.223,0,2.218,0.994,2.218,2.216V78.027z"/>
		<path fill="#D13920" d="M36.852,29.056V73.56h26.415l-0.001-44.504H36.852z M62.64,72.932h-25.16V29.684h25.16V72.932z"/>
	</g>
	<g display="inline">
		<path fill="#D13920" d="M97.156,21.827H71.561c-1.567,0-2.844,1.275-2.844,2.844v53.44c0,1.566,1.276,2.844,2.844,2.844h25.596
			c1.568,0,2.844-1.279,2.844-2.844v-53.44C100,23.103,98.725,21.827,97.156,21.827z M99.374,78.111
			c0,1.221-0.995,2.215-2.218,2.215H71.561c-1.222,0-2.216-0.994-2.216-2.215v-53.44c0-1.223,0.994-2.216,2.216-2.216h25.596
			c1.223,0,2.218,0.994,2.218,2.216V78.111z"/>
		<path fill="#D13920" d="M71.151,29.139v44.503h26.415l-0.001-44.503H71.151z M96.939,73.016h-25.16V29.767h25.16V73.016z"/>
	</g>
</g>
</svg>
