<?xml version="1.0" encoding="utf-8"?>
<!DOCTYPE svg PUBLIC "-//W3C//DTD SVG 1.1//EN" "http://www.w3.org/Graphics/SVG/1.1/DTD/svg11.dtd">
<svg version="1.1" id="prototype" xmlns="http://www.w3.org/2000/svg" xmlns:xlink="http://www.w3.org/1999/xlink" x="100%" y="100%"
	 width="100%" height="100%" viewBox="0 0 100 100" enable-background="new 0 0 100 100" xml:space="preserve">
<g id="Layer_1">
	<g>
		<path fill="#4C626E" d="M98.377,39.74h-8.033c-3.73,0-7.043-2.373-8.243-5.904c-2.13-6.266-8.009-10.475-14.626-10.475H9.45
			c-5.21,0-9.45,4.239-9.45,9.45V65.16c0,5.21,4.239,9.45,9.45,9.45h58.025c6.617,0,12.496-4.211,14.626-10.477
			c1.2-3.53,4.513-5.902,8.243-5.902h8.033c0.896,0,1.623-0.728,1.623-1.624V41.364C100,40.467,99.273,39.74,98.377,39.74z
			 M67.475,71.362H9.45c-3.42,0-6.203-2.782-6.203-6.203v-0.494c0.754,0.324,1.578,0.496,2.432,0.496c0,0,0,0,0,0
			c1.943,0,3.729-0.89,4.901-2.439c0.552-0.731,1.394-1.15,2.31-1.15c0.916,0,1.757,0.419,2.309,1.15
			c1.171,1.55,2.958,2.439,4.901,2.439s3.729-0.89,4.901-2.439c0.552-0.731,1.394-1.15,2.31-1.15c0.917,0,1.758,0.419,2.31,1.15
			c1.171,1.55,2.957,2.439,4.9,2.439s3.729-0.89,4.901-2.439c0.552-0.731,1.394-1.15,2.31-1.15c0.915,0,1.757,0.419,2.31,1.15
			c1.171,1.551,2.957,2.439,4.9,2.439s3.729-0.889,4.9-2.439c0.553-0.731,1.395-1.15,2.311-1.15c0.915,0,1.758,0.419,2.309,1.15
			c1.172,1.551,2.958,2.439,4.901,2.439s3.729-0.889,4.901-2.439c0.551-0.731,1.393-1.15,2.309-1.15s1.758,0.419,2.311,1.15
			c1.171,1.551,2.957,2.439,4.9,2.439c0.109,0,0.216-0.008,0.323-0.014C75.974,68.937,71.938,71.362,67.475,71.362z M27.484,41.185
			H24.73v-5.087h2.753V41.185z M23.107,44.431h6h6.5h6h6.501h6h3.488l0.711,3.754H19.396v-3.754H23.107z M39.985,41.185h-2.753
			v-5.087h2.753V41.185z M52.486,41.185h-2.754v-5.087h2.754V41.185z M65.371,51.432l-4.703,8.876
			c-1.159-1.267-2.773-1.983-4.517-1.983c-1.943,0-3.729,0.89-4.901,2.44c-0.551,0.73-1.393,1.149-2.309,1.149
			s-1.758-0.419-2.311-1.149c-1.171-1.551-2.957-2.44-4.9-2.44l0,0c-1.943,0-3.729,0.89-4.901,2.44
			c-0.552,0.73-1.394,1.149-2.31,1.149c-0.916,0-1.757-0.419-2.31-1.149c-1.171-1.551-2.958-2.44-4.901-2.44s-3.729,0.89-4.901,2.44
			c-0.552,0.73-1.394,1.149-2.31,1.149s-1.758-0.419-2.31-1.149c-0.896-1.186-2.151-1.983-3.561-2.294v-7.039H65.371L65.371,51.432z
			 M79.785,61.333c-0.578,0.387-1.336,0.581-2.003,0.581c-0.915,0-1.757-0.419-2.31-1.149c-1.172-1.551-2.957-2.44-4.9-2.44
			s-3.73,0.89-4.901,2.44c-0.524,0.694-1.313,1.104-2.175,1.143l6.006-11.339c0.268-0.503,0.25-1.109-0.043-1.598
			c-0.293-0.487-0.822-0.786-1.391-0.786h-6.455l-1.075-5.679c-0.146-0.767-0.815-1.321-1.595-1.321h-3.211v-6.711
			c0-0.896-0.727-1.624-1.623-1.624h-6c-0.897,0-1.624,0.727-1.624,1.624v6.711h-3.253v-6.711c0-0.896-0.728-1.624-1.624-1.624
			h-6.001c-0.896,0-1.623,0.727-1.623,1.624v6.711h-3.253v-6.711c0-0.896-0.727-1.624-1.624-1.624h-6
			c-0.897,0-1.624,0.727-1.624,1.624v6.711h-3.71c-0.896,0-1.624,0.727-1.624,1.623v5.377h-3.543c-0.897,0-1.624,0.727-1.624,1.623
			v8.818c-1.178,0.381-2.22,1.114-2.994,2.139c-0.552,0.73-1.394,1.149-2.31,1.149c-0.916,0-1.928-0.518-2.432-1.419V32.811
			c0-3.42,2.782-6.203,6.203-6.203h58.025c5.227,0,9.869,3.325,11.552,8.273c1.648,4.848,6.196,8.105,11.317,8.105h0.645v11.996
			h-0.645C85.869,54.983,81.832,57.472,79.785,61.333z M96.753,54.983h-2.517V42.987h2.517V54.983z"/>
		<circle fill="#D13920" cx="58.923" cy="54.46" r="1.778"/>
		<path fill="#D13920" d="M68.719,29.913c-0.896,0-1.623,0.727-1.623,1.624s0.727,1.624,1.623,1.624c2.598,0,4.711,2.113,4.711,4.71
			c0,0.897,0.727,1.623,1.623,1.623s1.623-0.726,1.623-1.623C76.676,33.483,73.106,29.913,68.719,29.913z"/>
	</g>
</g>
<g id="Layer_2" display="none">
	<g display="inline">
		<path fill="#D13920" d="M98.377,39.74h-8.033c-3.73,0-7.043-2.373-8.243-5.904c-2.13-6.266-8.009-10.475-14.626-10.475H9.45
			c-5.21,0-9.45,4.239-9.45,9.45V65.16c0,5.21,4.239,9.45,9.45,9.45h58.025c6.617,0,12.496-4.211,14.626-10.477
			c1.2-3.53,4.513-5.902,8.243-5.902h8.033c0.896,0,1.623-0.728,1.623-1.624V41.364C100,40.467,99.273,39.74,98.377,39.74z
			 M67.475,71.362H9.45c-3.42,0-6.203-2.782-6.203-6.203v-0.494c0.754,0.324,1.578,0.496,2.432,0.496c0,0,0,0,0,0
			c1.943,0,3.729-0.89,4.901-2.439c0.552-0.731,1.394-1.15,2.31-1.15c0.916,0,1.757,0.419,2.309,1.15
			c1.171,1.55,2.958,2.439,4.901,2.439s3.729-0.89,4.901-2.439c0.552-0.731,1.394-1.15,2.31-1.15c0.917,0,1.758,0.419,2.31,1.15
			c1.171,1.55,2.957,2.439,4.9,2.439s3.729-0.89,4.901-2.439c0.552-0.731,1.394-1.15,2.31-1.15c0.915,0,1.757,0.419,2.31,1.15
			c1.171,1.551,2.957,2.439,4.9,2.439s3.729-0.889,4.9-2.439c0.553-0.731,1.395-1.15,2.311-1.15c0.915,0,1.758,0.419,2.309,1.15
			c1.172,1.551,2.958,2.439,4.901,2.439s3.729-0.889,4.901-2.439c0.551-0.731,1.393-1.15,2.309-1.15s1.758,0.419,2.311,1.15
			c1.171,1.551,2.957,2.439,4.9,2.439c0.109,0,0.216-0.008,0.323-0.014C75.974,68.937,71.938,71.362,67.475,71.362z M27.484,41.185
			H24.73v-5.087h2.753V41.185z M23.107,44.431h6h6.5h6h6.501h6h3.488l0.711,3.754H19.396v-3.754H23.107z M39.985,41.185h-2.753
			v-5.087h2.753V41.185z M52.486,41.185h-2.754v-5.087h2.754V41.185z M65.371,51.432l-4.703,8.876
			c-1.159-1.267-2.773-1.983-4.517-1.983c-1.943,0-3.729,0.89-4.901,2.44c-0.551,0.73-1.393,1.149-2.309,1.149
			s-1.758-0.419-2.311-1.149c-1.171-1.551-2.957-2.44-4.9-2.44l0,0c-1.943,0-3.729,0.89-4.901,2.44
			c-0.552,0.73-1.394,1.149-2.31,1.149c-0.916,0-1.757-0.419-2.31-1.149c-1.171-1.551-2.958-2.44-4.901-2.44s-3.729,0.89-4.901,2.44
			c-0.552,0.73-1.394,1.149-2.31,1.149s-1.758-0.419-2.31-1.149c-0.896-1.186-2.151-1.983-3.561-2.294v-7.039H65.371L65.371,51.432z
			 M79.785,61.333c-0.578,0.387-1.336,0.581-2.003,0.581c-0.915,0-1.757-0.419-2.31-1.149c-1.172-1.551-2.957-2.44-4.9-2.44
			s-3.73,0.89-4.901,2.44c-0.524,0.694-1.313,1.104-2.175,1.143l6.006-11.339c0.268-0.503,0.25-1.109-0.043-1.598
			c-0.293-0.487-0.822-0.786-1.391-0.786h-6.455l-1.075-5.679c-0.146-0.767-0.815-1.321-1.595-1.321h-3.211v-6.711
			c0-0.896-0.727-1.624-1.623-1.624h-6c-0.897,0-1.624,0.727-1.624,1.624v6.711h-3.253v-6.711c0-0.896-0.728-1.624-1.624-1.624
			h-6.001c-0.896,0-1.623,0.727-1.623,1.624v6.711h-3.253v-6.711c0-0.896-0.727-1.624-1.624-1.624h-6
			c-0.897,0-1.624,0.727-1.624,1.624v6.711h-3.71c-0.896,0-1.624,0.727-1.624,1.623v5.377h-3.543c-0.897,0-1.624,0.727-1.624,1.623
			v8.818c-1.178,0.381-2.22,1.114-2.994,2.139c-0.552,0.73-1.394,1.149-2.31,1.149c-0.916,0-1.928-0.518-2.432-1.419V32.811
			c0-3.42,2.782-6.203,6.203-6.203h58.025c5.227,0,9.869,3.325,11.552,8.273c1.648,4.848,6.196,8.105,11.317,8.105h0.645v11.996
			h-0.645C85.869,54.983,81.832,57.472,79.785,61.333z M96.753,54.983h-2.517V42.987h2.517V54.983z"/>
		<circle fill="#D13920" cx="58.923" cy="54.46" r="1.778"/>
		<path fill="#D13920" d="M68.719,29.913c-0.896,0-1.623,0.727-1.623,1.624s0.727,1.624,1.623,1.624c2.598,0,4.711,2.113,4.711,4.71
			c0,0.897,0.727,1.623,1.623,1.623s1.623-0.726,1.623-1.623C76.676,33.483,73.106,29.913,68.719,29.913z"/>
	</g>
</g>
</svg>
