<?xml version="1.0" encoding="utf-8"?>
<!DOCTYPE svg PUBLIC "-//W3C//DTD SVG 1.1//EN" "http://www.w3.org/Graphics/SVG/1.1/DTD/svg11.dtd">
<svg version="1.1" id="questionthin" xmlns="http://www.w3.org/2000/svg" xmlns:xlink="http://www.w3.org/1999/xlink" x="100%" y="100%"
	 width="100%" height="100%" viewBox="0 0 100 100" enable-background="new 0 0 100 100" xml:space="preserve">
<g>
	<path display="none" fill-rule="evenodd" clip-rule="evenodd" fill="#FFFFFF" d="M7.347-8.706c43.519,0,87.041,0,130.56,0
		c0,47.841,0,95.678,0,143.52c-43.601,0-87.199,0-130.8,0c0-47.6,0-95.2,0-142.8C7.086-8.326,7.067-8.665,7.347-8.706z
		 M36.386,60.895c8.646-14.765,39.473-11.351,48.96-25.92c5.812-8.924,0.167-19.661-5.04-24C65.253-1.57,29.316-1.32,13.347,10.015
		c0.062,1.183,1.87,2.576,3.12,3.36c15.288-11.499,51.203-11.425,63.36,2.16c4.764,5.322,5.279,14.321,0.24,19.68
		c-13.434,14.287-51.987,6.599-49.44,36.96c1.28,0,2.56,0,3.84,0C34.338,67.591,34.622,63.907,36.386,60.895z M27.506,92.814
		c-3.277,8.607,11.42,9.597,9.84,0.96c-0.572-3.129-3.956-4.077-6.24-3.6C29.102,90.593,27.768,92.128,27.506,92.814z"/>
	<path fill-rule="evenodd" clip-rule="evenodd" fill="#4C626E" d="M34.466,72.175c-1.28,0-2.56,0-3.84,0
		c-2.547-30.361,36.006-22.674,49.44-36.96c5.039-5.358,4.523-14.357-0.24-19.68c-12.157-13.585-48.072-13.659-63.36-2.16
		c-1.25-0.784-3.058-2.177-3.12-3.36C29.316-1.32,65.253-1.57,80.307,10.975c5.207,4.339,10.852,15.076,5.04,24
		c-9.487,14.569-40.314,11.155-48.96,25.92C34.622,63.907,34.338,67.591,34.466,72.175z"/>
	<path fill-rule="evenodd" clip-rule="evenodd" fill="#D13920" d="M31.106,90.175c2.285-0.478,5.668,0.471,6.24,3.6
		c1.58,8.637-13.117,7.647-9.84-0.96C27.768,92.128,29.102,90.593,31.106,90.175z"/>
</g>
</svg>
