<?xml version="1.0" encoding="utf-8"?>
<!DOCTYPE svg PUBLIC "-//W3C//DTD SVG 1.1//EN" "http://www.w3.org/Graphics/SVG/1.1/DTD/svg11.dtd">
<svg version="1.1" id="smartphone" xmlns="http://www.w3.org/2000/svg" xmlns:xlink="http://www.w3.org/1999/xlink" x="100%" y="100%"
	 width="100%" height="100%" viewBox="0 0 100 100" enable-background="new 0 0 100 100" xml:space="preserve">
<g id="Layer_1">
	<g>
		<path fill="#4C626E" d="M71.628,0H28.37c-2.651,0-4.809,2.156-4.809,4.808v90.319c0,2.65,2.158,4.808,4.809,4.808h43.258
			c2.651,0,4.808-2.158,4.808-4.808V4.808C76.436,2.156,74.279,0,71.628,0z M75.376,95.127c0,2.065-1.682,3.746-3.748,3.746H28.37
			c-2.066,0-3.749-1.681-3.749-3.746V4.808c0-2.066,1.682-3.748,3.749-3.748h43.258c2.066,0,3.748,1.681,3.748,3.748V95.127z"/>
		<path fill="#4C626E" d="M27.677,12.359v75.215h44.645L72.32,12.359H27.677z M71.261,86.515H28.737V13.419h42.524V86.515z"/>
	</g>
</g>
<g id="Layer_2">
	<g>
		<path fill="#D13920" d="M53.653,7.659c0.538,0,0.976-0.439,0.976-0.976s-0.437-0.976-0.976-0.976h-7.309
			c-0.537,0-0.975,0.439-0.975,0.976s0.438,0.976,0.975,0.976H53.653z"/>
		<path fill="#D13920" d="M53.321,92.747c0-1.832-1.49-3.321-3.322-3.321c-1.831,0-3.322,1.489-3.322,3.321
			c0,1.833,1.491,3.324,3.322,3.324C51.831,96.071,53.321,94.58,53.321,92.747z M47.737,92.75c0-1.25,1.014-2.265,2.262-2.265
			c1.248,0,2.263,1.015,2.263,2.265c0,1.247-1.015,2.262-2.263,2.262C48.751,95.012,47.737,93.997,47.737,92.75z"/>
	</g>
</g>
</svg>
