<?xml version="1.0" encoding="utf-8"?>
<!DOCTYPE svg PUBLIC "-//W3C//DTD SVG 1.1//EN" "http://www.w3.org/Graphics/SVG/1.1/DTD/svg11.dtd">
<svg version="1.1" id="uptrend" xmlns="http://www.w3.org/2000/svg" xmlns:xlink="http://www.w3.org/1999/xlink" x="100%" y="100%"
	 width="100%" height="100%" viewBox="0 0 100 100" enable-background="new 0 0 100 100" xml:space="preserve">
<g>
	<path fill="#4C626E" d="M98.652,96.307H2.694V3.261c0-0.744-0.603-1.347-1.347-1.347S0,2.518,0,3.261v94.391
		C0,98.396,0.604,99,1.348,99h97.305c0.744,0,1.348-0.604,1.348-1.348C100,96.91,99.396,96.307,98.652,96.307z"/>
	<path fill="#D13920" d="M45.913,37.704L16.546,81.521c-0.2,0.299-0.273,0.656-0.205,1.01s0.271,0.66,0.573,0.86
		c0.224,0.149,0.483,0.227,0.748,0.227c0.453,0,0.873-0.222,1.121-0.597l28.665-42.766l15.684,9.151
		c0.588,0.347,1.396,0.166,1.787-0.394l21.277-30.651l2.992,6.386c0.504,1.077,1.123,1.011,1.383-0.151L94.98,4.778
		c0.26-1.162-0.34-1.578-1.338-0.929L76.615,14.91c-0.998,0.649-0.844,1.252,0.342,1.347l7.029,0.567L63.418,46.453l-15.705-9.162
		C47.112,36.945,46.297,37.135,45.913,37.704z"/>
</g>
</svg>
