<?xml version="1.0" encoding="utf-8"?>
<!DOCTYPE svg PUBLIC "-//W3C//DTD SVG 1.1//EN" "http://www.w3.org/Graphics/SVG/1.1/DTD/svg11.dtd">
<svg version="1.1" id="xmark" xmlns="http://www.w3.org/2000/svg" xmlns:xlink="http://www.w3.org/1999/xlink" x="100%" y="100%"
	 width="100%" height="100%" viewBox="0 0 100 100" enable-background="new 0 0 100 100" xml:space="preserve">
<g id="Layer_1">
	<g>
		<path display="none" fill-rule="evenodd" clip-rule="evenodd" fill="#FFFFFF" d="M3.346-12.402c31.439,0,62.88,0,94.319,0
			c0,50.001,0,99.998,0,150c-31.52,0-63.039,0-94.56,0c0-49.76,0-99.52,0-149.28C3.085-12.023,3.066-12.362,3.346-12.402z
			 M47.746,49.038c-13.431,15.899-28.071,32.333-41.52,48c-0.872,1.016-2.267,2.349-1.92,3.119c1.6,0,3.2,0,4.8,0
			c14.102-15.818,27.639-32.2,41.76-48c11.486,13.678,23.92,28.26,35.76,42.24c1.456,1.719,4.219,5.373,5.521,5.76
			c1.435,0.428,3.435-0.332,4.56,0C83.09,83.213,67.303,66.36,53.266,49.038c12.972-15.121,26.776-31,39.6-46.08
			c0.854-1.003,2.24-2.163,1.92-2.88c-1.52,0-3.04,0-4.56,0c-13.682,14.958-26.235,31.044-40.08,45.84
			C37.05,30.533,24.06,15.043,10.545,0.078c-1.522,0.157-3.676-0.316-4.8,0.24C19.872,16.43,33.86,32.683,47.746,49.038z"/>
		<path fill-rule="evenodd" clip-rule="evenodd" fill="#4C626E" d="M5.746,0.318c1.124-0.557,3.277-0.083,4.8-0.24
			c13.514,14.966,26.505,30.455,39.6,45.84c13.845-14.795,26.398-30.881,40.08-45.84c1.52,0,3.04,0,4.56,0
			c0.32,0.717-1.066,1.876-1.92,2.88c-12.823,15.081-26.628,30.959-39.6,46.08c14.037,17.323,29.824,34.175,43.439,51.12
			c-1.125-0.332-3.125,0.428-4.56,0c-1.302-0.387-4.064-4.041-5.521-5.76c-11.84-13.98-24.273-28.563-35.76-42.24
			c-14.121,15.8-27.658,32.182-41.76,48c-1.6,0-3.2,0-4.8,0c-0.347-0.771,1.048-2.104,1.92-3.119
			c13.449-15.668,28.089-32.102,41.52-48C33.86,32.683,19.872,16.43,5.746,0.318z"/>
	</g>
</g>
<g id="Layer_2">
	<g>
		<path display="none" fill-rule="evenodd" clip-rule="evenodd" fill="#FFFFFF" d="M3.346-12.402c31.439,0,62.88,0,94.319,0
			c0,50.001,0,99.998,0,150c-31.52,0-63.039,0-94.56,0c0-49.76,0-99.52,0-149.28C3.085-12.023,3.066-12.362,3.346-12.402z
			 M47.746,49.038c-13.431,15.899-28.071,32.333-41.52,48c-0.872,1.016-2.267,2.349-1.92,3.119c1.6,0,3.2,0,4.8,0
			c14.102-15.818,27.639-32.2,41.76-48c11.486,13.678,23.92,28.26,35.76,42.24c1.456,1.719,4.219,5.373,5.521,5.76
			c1.435,0.428,3.435-0.332,4.56,0C83.09,83.213,67.303,66.36,53.266,49.038c12.972-15.121,26.776-31,39.6-46.08
			c0.854-1.003,2.24-2.163,1.92-2.88c-1.52,0-3.04,0-4.56,0c-13.682,14.958-26.235,31.044-40.08,45.84
			C37.05,30.533,24.06,15.043,10.545,0.078c-1.522,0.157-3.676-0.316-4.8,0.24C19.872,16.43,33.86,32.683,47.746,49.038z"/>
		<path fill-rule="evenodd" clip-rule="evenodd" fill="#D13920" d="M47.647,49.153c1.073,0.976,2.098,2.004,3.074,3.078
			c0.26-0.216,0.528-0.423,0.793-0.634c0.617-0.78,1.251-1.546,1.922-2.281c-1.104-1.029-2.139-2.127-3.137-3.257
			c-0.871,0.962-1.786,1.882-2.735,2.767c0.06,0.071,0.121,0.141,0.181,0.212C47.713,49.076,47.68,49.115,47.647,49.153z"/>
	</g>
</g>
</svg>
