<?xml version="1.0" encoding="utf-8"?>
<!DOCTYPE svg PUBLIC "-//W3C//DTD SVG 1.1//EN" "http://www.w3.org/Graphics/SVG/1.1/DTD/svg11.dtd">
<svg version="1.1" id="years" xmlns="http://www.w3.org/2000/svg" xmlns:xlink="http://www.w3.org/1999/xlink" x="100%" y="100%"
	 width="100%" height="100%" viewBox="0 0 100 100" enable-background="new 0 0 100 100" xml:space="preserve">
<g>
	<g>
		<path fill="#4C626E" d="M91.036,12.282H77.058c-0.283-4.897-1.401-8.376-3.326-10.326c-1.536-1.566-3.61-2.224-5.943-1.857
			c-6.541,1.022-6.81,9.365-6.711,12.183H33.126c-0.289-4.865-1.404-8.315-3.319-10.263c-1.535-1.558-3.597-2.203-5.939-1.852
			c-6.499,1.012-6.803,9.312-6.714,12.115H8.287c-2.421,0-4.395,1.971-4.395,4.394v78.933c0,2.42,1.974,4.391,4.395,4.391h53.549
			c1.551,0,3.329-0.727,4.604-1.861c0.331-0.25,0.611-0.529,0.855-0.861l26.275-34.816c1.086-1.424,1.862-3.762,1.862-5.549V16.676
			C95.437,14.253,93.463,12.282,91.036,12.282z M68.491,4.557c0.851-0.139,1.485,0.013,2.027,0.564
			c1.11,1.131,1.811,3.6,2.021,7.162h-6.947C65.479,9.988,65.798,4.977,68.491,4.557z M24.568,4.627
			c0.857-0.147,1.487,0.02,2.023,0.564c1.111,1.123,1.807,3.567,2.021,7.093h-6.941C21.621,10.517,21.702,5.07,24.568,4.627z
			 M66.23,92.166v-30.4c0-0.26,0.207-0.465,0.466-0.465h22.825L66.23,92.166z M91.502,56.912c0,0.133-0.015,0.293-0.05,0.484
			c-0.14-0.014-0.273-0.025-0.416-0.025H66.693c-2.427,0-4.397,1.969-4.397,4.395v33.84c0,0.133,0.006,0.262,0.016,0.383
			c-0.182,0.053-0.35,0.076-0.476,0.076H8.282c-0.255,0-0.463-0.205-0.463-0.467V33.727h83.683V56.912z M91.507,29.213H7.824V16.676
			H7.821c0-0.258,0.208-0.463,0.463-0.463h20.38c-0.028,0.992-0.081,2.014-0.16,3.051c-1.844,0.661-3.086,2.363-3.086,4.313
			c0,2.573,2.092,4.665,4.665,4.665s4.665-2.092,4.665-4.665c0-1.394-0.635-2.669-1.764-3.564c0.109-1.295,0.18-2.568,0.208-3.8
			h39.391c-0.031,1.118-0.094,2.279-0.193,3.456c-1.36,0.855-2.19,2.315-2.19,3.909c0,2.573,2.087,4.665,4.665,4.665
			c2.572,0,4.668-2.092,4.668-4.665c0-1.75-1.018-3.347-2.584-4.131c0.084-1.085,0.143-2.168,0.165-3.233h13.929
			c0.256,0,0.465,0.205,0.465,0.463V29.213L91.507,29.213z"/>
		<path fill="#D13920" d="M17.197,53.826h2.302c2.902,0,5.265-2.363,5.265-5.265v-2.302c0-2.901-2.363-5.263-5.265-5.263h-2.302
			c-2.902,0-5.262,2.363-5.262,5.263v2.302C11.935,51.463,14.295,53.826,17.197,53.826z M16.445,46.259
			c0-0.413,0.336-0.751,0.751-0.751h2.302c0.415,0,0.751,0.338,0.751,0.751v2.302c0,0.415-0.339,0.754-0.751,0.754h-2.302
			c-0.415,0-0.751-0.339-0.751-0.754V46.259z"/>
		<path fill="#D13920" d="M33.088,53.826h2.302c2.901,0,5.265-2.363,5.265-5.265v-2.302c-0.003-2.901-2.363-5.263-5.265-5.263
			h-2.302c-2.902,0-5.264,2.363-5.264,5.263v2.302C27.824,51.463,30.187,53.826,33.088,53.826z M32.334,46.259
			c0-0.413,0.339-0.751,0.751-0.751h2.302c0.415,0,0.752,0.338,0.752,0.751v2.302c0,0.415-0.34,0.754-0.752,0.754h-2.302
			c-0.415,0-0.751-0.339-0.751-0.754V46.259z"/>
		<path fill="#D13920" d="M48.979,53.826h2.303c2.898,0,5.262-2.363,5.262-5.265v-2.302c0-2.901-2.363-5.263-5.262-5.263h-2.303
			c-2.9,0-5.266,2.363-5.266,5.263v2.302C43.716,51.463,46.079,53.826,48.979,53.826z M48.226,46.259c0-0.413,0.34-0.751,0.75-0.751
			h2.301c0.416,0,0.757,0.338,0.757,0.751v2.302c0,0.415-0.341,0.754-0.757,0.754h-2.301c-0.416,0-0.75-0.339-0.75-0.754V46.259z"/>
		<path fill="#D13920" d="M17.197,68.715h2.302c2.902,0,5.265-2.365,5.265-5.266v-2.303c0-2.898-2.363-5.262-5.265-5.262h-2.302
			c-2.902,0-5.262,2.363-5.262,5.262v2.303C11.935,66.35,14.295,68.715,17.197,68.715z M16.445,61.145
			c0-0.416,0.336-0.752,0.751-0.752h2.302c0.415,0,0.751,0.336,0.751,0.752v2.301c0,0.416-0.339,0.752-0.751,0.752h-2.302
			c-0.415,0-0.751-0.336-0.751-0.752V61.145z"/>
		<path fill="#D13920" d="M33.088,68.715h2.302c2.901,0,5.265-2.365,5.265-5.266v-2.303c-0.003-2.898-2.363-5.262-5.265-5.262
			h-2.302c-2.902,0-5.264,2.363-5.264,5.262v2.303C27.824,66.35,30.187,68.715,33.088,68.715z M32.334,61.145
			c0-0.416,0.339-0.752,0.751-0.752h2.302c0.415,0,0.752,0.336,0.752,0.752v2.301c0,0.416-0.34,0.752-0.752,0.752h-2.302
			c-0.415,0-0.751-0.336-0.751-0.752V61.145z"/>
		<path fill="#D13920" d="M48.979,68.715h2.303c2.898,0,5.262-2.365,5.262-5.266v-2.303c0-2.898-2.363-5.262-5.262-5.262h-2.303
			c-2.9,0-5.266,2.363-5.266,5.262v2.303C43.716,66.35,46.079,68.715,48.979,68.715z M48.226,61.145c0-0.416,0.34-0.752,0.75-0.752
			h2.301c0.416,0,0.757,0.336,0.757,0.752v2.301c0,0.416-0.341,0.752-0.757,0.752h-2.301c-0.416,0-0.75-0.336-0.75-0.752V61.145z"/>
		<path fill="#D13920" d="M17.197,83.6h2.302c2.902,0,5.265-2.365,5.265-5.262v-2.305c0-2.898-2.363-5.262-5.265-5.262h-2.302
			c-2.902,0-5.262,2.365-5.262,5.262v2.305C11.935,81.236,14.295,83.6,17.197,83.6z M16.445,76.033c0-0.412,0.336-0.754,0.751-0.754
			h2.302c0.415,0,0.751,0.342,0.751,0.754v2.305c0,0.41-0.339,0.752-0.751,0.752h-2.302c-0.415,0-0.751-0.342-0.751-0.752V76.033z"
			/>
		<path fill="#D13920" d="M33.088,83.6h2.302c2.901,0,5.265-2.365,5.265-5.262v-2.305c-0.003-2.898-2.363-5.262-5.265-5.262h-2.302
			c-2.902,0-5.264,2.365-5.264,5.262v2.305C27.824,81.236,30.187,83.6,33.088,83.6z M32.334,76.033c0-0.412,0.339-0.754,0.751-0.754
			h2.302c0.415,0,0.752,0.342,0.752,0.754v2.305c0,0.41-0.34,0.752-0.752,0.752h-2.302c-0.415,0-0.751-0.342-0.751-0.752V76.033z"/>
		<path fill="#D13920" d="M48.979,83.6h2.303c2.898,0,5.262-2.365,5.262-5.262v-2.305c0-2.898-2.363-5.262-5.262-5.262h-2.303
			c-2.9,0-5.266,2.365-5.266,5.262v2.305C43.716,81.236,46.079,83.6,48.979,83.6z M48.226,76.033c0-0.412,0.34-0.754,0.75-0.754
			h2.301c0.416,0,0.757,0.342,0.757,0.754v2.305c0,0.41-0.341,0.752-0.757,0.752h-2.301c-0.416,0-0.75-0.342-0.75-0.752V76.033z"/>
		<path fill="#D13920" d="M64.872,53.826h2.302c2.899,0,5.265-2.363,5.265-5.265v-2.302c0-2.901-2.365-5.263-5.265-5.263h-2.302
			c-2.899,0-5.262,2.363-5.262,5.263v2.302C59.61,51.463,61.973,53.826,64.872,53.826z M64.12,46.259
			c0-0.413,0.342-0.751,0.752-0.751h2.302c0.415,0,0.757,0.338,0.757,0.751v2.302c0,0.415-0.342,0.754-0.757,0.754h-2.302
			c-0.41,0-0.752-0.339-0.752-0.754V46.259z"/>
		<path fill="#D13920" d="M80.761,53.826h2.303c2.898,0,5.264-2.363,5.264-5.265v-2.302c0-2.901-2.359-5.263-5.264-5.263h-2.303
			c-2.898,0-5.262,2.363-5.262,5.263v2.302C75.499,51.463,77.859,53.826,80.761,53.826z M80.01,46.259
			c0-0.413,0.339-0.751,0.751-0.751h2.303c0.414,0,0.754,0.338,0.754,0.751v2.302c0,0.415-0.34,0.754-0.754,0.754h-2.303
			c-0.412,0-0.751-0.339-0.751-0.754V46.259z"/>
	</g>
</g>
</svg>
